<svg width="1024" height="1024" viewBox="0 0 1024 1024" fill="none" xmlns="http://www.w3.org/2000/svg">
<mask id="mask0_301_49" style="mask-type:luminance" maskUnits="userSpaceOnUse" x="0" y="0" width="1024" height="1024">
<path d="M0 0H1024V1024H0V0Z" fill="white"/>
</mask>
<g mask="url(#mask0_301_49)">
<path d="M940.072 956.81H84.6016" stroke="#373435" stroke-width="1.42" stroke-linecap="round"/>
<path fill-rule="evenodd" clip-rule="evenodd" d="M424.312 878.78C423.442 880.57 586.532 875.31 606.682 878.78L620.552 786.93C624.892 754.51 626.322 745.31 616.182 703.08L587.352 579.16L448.092 535.3C435.402 606.19 425.482 661.59 412.792 732.48C407.732 759.35 403.922 767.55 412.552 806.55L424.322 878.79L424.312 878.78Z" fill="#FEFEFE"/>
<path d="M424.312 878.78C423.442 880.57 586.532 875.31 606.682 878.78L620.552 786.93C624.892 754.51 626.322 745.31 616.182 703.08L587.352 579.16L448.092 535.3C435.402 606.19 425.482 661.59 412.792 732.48C407.732 759.35 403.922 767.55 412.552 806.55L424.322 878.79L424.312 878.78Z" stroke="#373435" stroke-width="1.42" stroke-linecap="round"/>
<path fill-rule="evenodd" clip-rule="evenodd" d="M514.792 878.81C515.202 881.83 514.672 956.4 514.672 956.4C514.672 956.4 334.012 956.62 334.192 956.12C350.452 911.33 394.392 925.85 424.312 878.77L514.792 878.799V878.81Z" fill="#D2D3D5"/>
<path d="M514.792 878.81C515.202 881.83 514.672 956.4 514.672 956.4C514.672 956.4 334.012 956.62 334.192 956.12C350.452 911.33 394.392 925.85 424.312 878.77L514.792 878.799V878.81Z" stroke="#373435" stroke-width="1.42" stroke-linecap="round"/>
<path fill-rule="evenodd" clip-rule="evenodd" d="M514.781 878.699C514.271 881.719 513.811 956.399 513.811 956.399C513.811 956.399 694.411 956.629 694.301 956.119C684.281 910.079 635.081 925.849 606.691 878.769L514.781 878.689V878.699Z" fill="#D2D3D5"/>
<path d="M514.781 878.699C514.271 881.719 513.811 956.399 513.811 956.399C513.811 956.399 694.411 956.629 694.301 956.119C684.281 910.079 635.081 925.849 606.691 878.769L514.781 878.689V878.699Z" stroke="#373435" stroke-width="1.42" stroke-linecap="round"/>
<path fill-rule="evenodd" clip-rule="evenodd" d="M538.2 343.39L485.49 342.86L485.55 299.07L486.94 220.55C486.54 196.24 512.48 180.33 532.54 198.29C538.38 203.52 553.25 227.89 558.57 235.89C569.38 252.16 580.75 270.3 573.54 281.78C569.36 288.42 557.54 295.04 537.02 290.84L538.21 343.38L538.2 343.39Z" fill="#FEFEFE"/>
<path d="M538.2 343.39L485.49 342.86L485.55 299.07L486.94 220.55C486.54 196.24 512.48 180.33 532.54 198.29C538.38 203.52 553.25 227.89 558.57 235.89C569.38 252.16 580.75 270.3 573.54 281.78C569.36 288.42 557.54 295.04 537.02 290.84L538.21 343.38L538.2 343.39Z" stroke="#373435" stroke-width="1.42" stroke-linecap="round"/>
<path d="M548.22 257.889C542.89 260.629 529.63 268.229 522.5 253.819" stroke="#373435" stroke-width="1.42" stroke-linecap="round"/>
<path d="M515.48 878.03L516.35 668.95" stroke="#373435" stroke-width="1.42" stroke-linecap="round"/>
<path fill-rule="evenodd" clip-rule="evenodd" d="M331.781 212.77L396.691 213.33L253.971 77.2998L255.431 267.46L302.911 222.22L346.671 317.77L369.291 294.14L331.781 212.77Z" fill="#D2D3D5"/>
<path d="M331.781 212.77L396.691 213.33L253.971 77.2998L255.431 267.46L302.911 222.22L346.671 317.77L369.291 294.14L331.781 212.77Z" stroke="#373435" stroke-width="1.42" stroke-linecap="round"/>
<path d="M732.64 665.25C771.42 704.03 771.42 766.91 732.64 805.7C693.86 844.48 630.98 844.48 592.19 805.7C553.41 766.91 553.41 704.03 592.19 665.25C630.98 626.47 693.86 626.47 732.64 665.25Z" fill="#D2D3D5"/>
<path d="M732.64 665.25C771.42 704.03 771.42 766.91 732.64 805.7C693.86 844.48 630.98 844.48 592.19 805.7C553.41 766.91 553.41 704.03 592.19 665.25C630.98 626.47 693.86 626.47 732.64 665.25Z" stroke="#373435" stroke-width="1.42" stroke-linecap="round"/>
<path fill-rule="evenodd" clip-rule="evenodd" d="M480.06 343.6C479.31 346.09 445.13 556.8 440.26 583.36C440.19 583.75 588.48 584.16 588.48 584.16C578.67 542.63 559.71 422.24 547.24 360.56C546.65 357.63 543.84 343.93 530.98 343.71C522.21 343.56 480.05 343.61 480.05 343.61L480.06 343.6Z" fill="#373435"/>
<path fill-rule="evenodd" clip-rule="evenodd" d="M537.08 395.75L538.2 343.39L619.17 379.58C624.61 382.17 638.57 381.74 643.42 377.72L739.19 311.8L842.42 373.99L858.59 382.7L691.93 453.59C668.05 464.29 641.9 466.73 618.55 452.14L537.08 395.75Z" fill="#373435"/>
<path fill-rule="evenodd" clip-rule="evenodd" d="M484.221 395.75L483.101 343.39L402.131 379.58C396.691 382.17 382.731 381.74 377.881 377.72L282.111 311.8L178.881 373.99L162.711 382.7L329.371 453.59C353.251 464.29 379.401 466.73 402.751 452.14L484.221 395.75Z" fill="#373435"/>
<path d="M739.557 311.191L842.757 373.364L858.927 382.075L860.227 382.775L858.868 383.354L692.208 454.243L692.207 454.242C668.197 464.997 641.786 467.496 618.174 452.742L618.16 452.733L618.146 452.724L557.388 410.67C561.336 432.646 565.496 456.589 569.557 479.793C577.083 522.802 584.272 563.257 589.171 583.996L589.378 584.872L588.478 584.869L588.479 584.159C588.478 584.808 588.478 584.864 588.477 584.869H588.37C588.299 584.869 588.193 584.869 588.053 584.868C587.772 584.867 587.356 584.867 586.812 584.865C585.726 584.862 584.134 584.858 582.106 584.852C578.052 584.84 572.259 584.822 565.309 584.8C551.407 584.755 532.873 584.692 514.341 584.616C495.809 584.541 477.278 584.453 463.385 584.359C456.438 584.313 450.65 584.264 446.6 584.216C444.575 584.192 442.983 584.167 441.896 584.143C441.354 584.13 440.934 584.118 440.647 584.105C440.506 584.099 440.389 584.092 440.303 584.085C440.263 584.082 440.212 584.077 440.163 584.068C440.145 584.065 440.089 584.055 440.025 584.032C439.987 584.017 439.888 583.966 439.829 583.925C439.724 583.826 439.559 583.479 439.561 583.234L439.562 583.231C441.995 569.96 451.755 510.652 461.004 454.338C463.684 438.022 466.321 421.958 468.724 407.34L403.155 452.724L403.142 452.733L403.127 452.742C379.514 467.496 353.103 464.997 329.093 454.242V454.243L162.433 383.354L161.074 382.775L162.374 382.075L178.544 373.364L281.744 311.191L282.137 310.955L282.514 311.215L378.283 377.135L378.31 377.153L378.334 377.173C379.435 378.086 381.107 378.833 383.138 379.386C385.157 379.935 387.477 380.279 389.827 380.42C394.563 380.704 399.269 380.156 401.826 378.938L401.833 378.936L401.841 378.932L479.184 344.362C479.186 344.348 479.189 344.333 479.191 344.319L478.33 344.321L479.549 343.106L479.559 343.097L480.05 343.392C480.049 342.9 480.05 342.899 480.05 342.899H480.524C480.835 342.899 481.293 342.898 481.878 342.897C482.06 342.897 482.255 342.897 482.462 342.896L482.812 342.741L483.788 342.305L483.8 342.896C484.669 342.895 485.668 342.895 486.773 342.895C490.863 342.892 496.408 342.89 502.227 342.894C513.86 342.9 526.6 342.925 530.992 343C533.496 343.043 535.637 343.577 537.467 344.434L537.49 343.375L537.513 342.305L538.49 342.741L619.46 378.932L619.468 378.936L619.476 378.938C622.033 380.156 626.738 380.704 631.474 380.42C633.824 380.279 636.144 379.935 638.163 379.386C640.194 378.833 641.865 378.086 642.967 377.173L642.991 377.153L643.018 377.135L738.787 311.215L739.164 310.955L739.557 311.191Z" fill="#FF6B6B"/>
<path fill-rule="evenodd" clip-rule="evenodd" d="M739.19 311.8C753.57 287.42 748.01 245.28 755.33 222.72C759.44 210.05 771.83 198.02 789.4 206.81C812.02 218.13 802.99 258.79 809.82 258.17C812.44 257.93 819.29 254.67 823.35 252.98C835.46 247.97 862.3 237.51 885.05 244.33C896.37 247.72 907.5 256.25 903.25 270.18C900.59 278.92 895.9 278.83 895.39 278.53C894.82 278.19 919.27 278.64 928.18 283.6C946.45 293.77 942.34 310.8 937.15 314.34C930.9 318.6 922.09 316.4 935.19 319.68C953.07 324.16 960.81 358.7 920.53 363.36C892.14 366.65 827.17 396.05 827.17 396.05C823.19 397.74 752.72 322.84 739.18 311.8H739.19Z" fill="#FEFEFE"/>
<path d="M739.19 311.8C753.57 287.42 748.01 245.28 755.33 222.72C759.44 210.05 771.83 198.02 789.4 206.81C812.02 218.13 802.99 258.79 809.82 258.17C812.44 257.93 819.29 254.67 823.35 252.98C835.46 247.97 862.3 237.51 885.05 244.33C896.37 247.72 907.5 256.25 903.25 270.18C900.59 278.92 895.9 278.83 895.39 278.53C894.82 278.19 919.27 278.64 928.18 283.6C946.45 293.77 942.34 310.8 937.15 314.34C930.9 318.6 922.09 316.4 935.19 319.68C953.07 324.16 960.81 358.7 920.53 363.36C892.14 366.65 827.17 396.05 827.17 396.05C823.19 397.74 752.72 322.84 739.18 311.8H739.19Z" stroke="#373435" stroke-width="1.42" stroke-linecap="round"/>
<path d="M852.08 287.44C870.93 279.2 886.12 279.28 898.2 278.33" stroke="#373435" stroke-width="1.42" stroke-linecap="round"/>
<path d="M882.301 325.51C893.791 320.78 902.171 319.54 929.161 317.25" stroke="#373435" stroke-width="1.42" stroke-linecap="round"/>
<path d="M809.82 258.16C810.87 270.3 820.48 275.19 820.48 309.11V312.68" stroke="#373435" stroke-width="1.42" stroke-linecap="round"/>
<path fill-rule="evenodd" clip-rule="evenodd" d="M285.66 312.97C271.28 288.59 276.84 246.45 269.52 223.89C265.41 211.22 253.02 199.19 235.45 207.98C212.82 219.3 221.86 259.96 215.03 259.34C212.41 259.1 205.56 255.84 201.5 254.16C189.39 249.15 162.55 238.69 139.8 245.51C128.48 248.9 117.35 257.43 121.6 271.36C124.26 280.1 128.95 280.01 129.46 279.71C130.03 279.37 105.58 279.82 96.6698 284.78C78.3998 294.95 82.5098 311.98 87.6998 315.52C93.9498 319.78 102.76 317.58 89.6598 320.86C71.7798 325.34 64.0398 359.88 104.32 364.54C132.71 367.83 197.68 397.23 197.68 397.23C201.66 398.92 272.13 324.02 285.67 312.98L285.66 312.97Z" fill="#FEFEFE"/>
<path d="M285.66 312.97C271.28 288.59 276.84 246.45 269.52 223.89C265.41 211.22 253.02 199.19 235.45 207.98C212.82 219.3 221.86 259.96 215.03 259.34C212.41 259.1 205.56 255.84 201.5 254.16C189.39 249.15 162.55 238.69 139.8 245.51C128.48 248.9 117.35 257.43 121.6 271.36C124.26 280.1 128.95 280.01 129.46 279.71C130.03 279.37 105.58 279.82 96.6698 284.78C78.3998 294.95 82.5098 311.98 87.6998 315.52C93.9498 319.78 102.76 317.58 89.6598 320.86C71.7798 325.34 64.0398 359.88 104.32 364.54C132.71 367.83 197.68 397.23 197.68 397.23C201.66 398.92 272.13 324.02 285.67 312.98L285.66 312.97Z" stroke="#373435" stroke-width="1.42" stroke-linecap="round"/>
<path d="M172.78 288.61C153.93 280.37 138.74 280.45 126.66 279.5" stroke="#373435" stroke-width="1.42" stroke-linecap="round"/>
<path d="M142.551 326.68C131.061 321.95 122.681 320.7 95.6914 318.42" stroke="#373435" stroke-width="1.42" stroke-linecap="round"/>
<path d="M215.031 259.34C213.981 271.48 204.371 276.37 204.371 310.29V313.86" stroke="#373435" stroke-width="1.42" stroke-linecap="round"/>
<path fill-rule="evenodd" clip-rule="evenodd" d="M836.53 440.72C836.53 506.66 889.99 560.11 955.92 560.11C889.98 560.11 836.53 613.57 836.53 679.5C836.53 613.56 783.08 560.11 717.14 560.11C783.08 560.11 836.53 506.65 836.53 440.72Z" fill="#FEFEFE"/>
<path d="M957.89 560.09L955.92 560.12M836.53 679.5C836.53 613.57 889.98 560.11 955.92 560.11C889.99 560.11 836.53 506.66 836.53 440.72C836.53 506.65 783.08 560.11 717.14 560.11M836.53 679.5V680.48M836.53 679.5C836.53 613.56 783.08 560.11 717.14 560.11M717.14 560.11L715.18 560.08M836.49 437.77L836.53 440.45" stroke="#373435" stroke-width="1.42" stroke-linecap="round"/>
<path d="M56.9707 446.899L191.241 353.859L284.291 488.129L150.011 581.179L56.9707 446.899Z" fill="#FEFEFE"/>
<path d="M56.9707 446.899L191.241 353.859L284.291 488.129L150.011 581.179L56.9707 446.899Z" stroke="#373435" stroke-width="1.42" stroke-linecap="round"/>
<path d="M272.151 587.903C272.652 587.854 273.222 588.076 273.951 588.775C274.68 589.475 275.497 590.585 276.475 592.145C278.431 595.264 280.936 600.016 284.596 606.495C290.345 616.67 295.589 621.937 301.938 623.968C308.258 625.989 315.561 624.761 325.295 622.273C332.162 620.519 336.866 619.094 340.068 618.367C341.667 618.004 342.825 617.832 343.646 617.87C344.451 617.908 344.82 618.138 345.018 618.479C345.248 618.876 345.33 619.558 345.204 620.699C345.08 621.819 344.77 623.273 344.329 625.135C343.451 628.845 342.072 634.1 340.729 641.268C338.866 651.202 339.224 658.095 341.903 663.768C344.578 669.429 349.529 673.793 356.645 678.75C362.814 683.051 367.422 685.767 370.444 687.675C371.965 688.635 373.059 689.375 373.765 690.006C374.487 690.651 374.682 691.078 374.664 691.401C374.646 691.742 374.384 692.19 373.596 692.853C372.828 693.497 371.676 694.253 370.107 695.23C366.986 697.175 362.314 699.941 356.132 704.312C347.408 710.48 342.449 715.615 340.275 721.469C338.101 727.326 338.752 733.805 340.986 742.553V742.554C342.819 749.72 344.343 754.86 345.171 758.492C345.584 760.304 345.811 761.692 345.82 762.731C345.829 763.778 345.616 764.366 345.267 764.699C344.915 765.035 344.306 765.228 343.24 765.188C342.184 765.149 340.783 764.887 338.961 764.432C335.307 763.519 330.159 761.888 322.983 759.917C312.091 756.927 305.121 756.558 299.553 759.203C294.005 761.839 289.963 767.421 284.783 775.96C282.856 779.136 281.252 781.907 279.889 784.271C278.524 786.639 277.407 788.592 276.448 790.146C275.486 791.704 274.704 792.827 274.016 793.549C273.321 794.277 272.805 794.512 272.372 794.491C271.926 794.47 271.387 794.172 270.668 793.377C269.959 792.593 269.153 791.413 268.162 789.81C267.174 788.21 266.02 786.221 264.611 783.83C263.205 781.442 261.549 778.662 259.564 775.494C254.455 767.333 249.954 762.208 244.3 759.73C238.815 757.327 232.339 757.455 223.361 759.518L222.484 759.723C218.666 760.637 215.401 761.49 212.625 762.223C209.846 762.956 207.568 763.566 205.711 763.996C203.847 764.428 202.448 764.669 201.418 764.682C200.382 764.694 199.843 764.474 199.549 764.123C199.24 763.754 199.08 763.101 199.157 761.946C199.234 760.809 199.531 759.303 199.999 757.345C200.928 753.458 202.525 747.819 204.239 740.077C206.377 730.425 206.678 723.968 204.262 718.655C201.848 713.349 196.77 709.292 188.469 704.301C181.758 700.264 176.828 697.55 173.571 695.46C171.946 694.417 170.783 693.557 170.046 692.797C169.306 692.034 169.07 691.449 169.117 690.941C169.167 690.415 169.535 689.802 170.42 689.025C171.295 688.257 172.595 687.398 174.346 686.361C176.092 685.327 178.257 684.133 180.853 682.694C183.445 681.257 186.46 679.579 189.893 677.581C197.143 673.361 201.765 668.59 204.025 662.771C206.284 656.956 206.154 650.175 204.065 641.996C203.1 638.213 202.201 634.955 201.426 632.168C200.65 629.377 200 627.066 199.531 625.163C199.061 623.255 198.782 621.793 198.732 620.693C198.682 619.582 198.873 618.956 199.212 618.599C199.548 618.245 200.147 618.032 201.232 618.052C202.308 618.071 203.75 618.316 205.642 618.748C207.528 619.179 209.826 619.788 212.604 620.52C215.38 621.25 218.628 622.102 222.403 623.016C231.841 625.299 238.588 625.846 244.231 623.591C249.882 621.333 254.316 616.312 259.254 607.76V607.759C263.037 601.202 265.622 596.289 267.646 592.927C268.655 591.252 269.5 590.006 270.257 589.165C271.022 588.315 271.629 587.955 272.151 587.903Z" fill="#B089FF" stroke="black"/>
<path fill-rule="evenodd" clip-rule="evenodd" d="M655.101 103.22L683.181 119.43L711.261 135.64V168.07V200.5L683.181 216.71L655.101 232.92L627.021 216.71L598.941 200.5V168.07V135.64L627.021 119.43L655.101 103.22Z" fill="#373435"/>
<path d="M655.101 103.22L683.181 119.43L711.261 135.64V168.07V200.5L683.181 216.71L655.101 232.92L627.021 216.71L598.941 200.5V168.07V135.64L627.021 119.43L655.101 103.22Z" fill="#7C7C7C" stroke="#373435" stroke-width="1.42" stroke-linecap="round"/>
</g>
</svg>
