<?xml version="1.0" standalone="no"?><!DOCTYPE svg PUBLIC "-//W3C//DTD SVG 1.1//EN" "http://www.w3.org/Graphics/SVG/1.1/DTD/svg11.dtd"><svg height="1024" node-id="1" sillyvg="true" template-height="1024" template-width="1024" version="1.1" viewBox="0 0 1024 1024" width="1024" xmlns="http://www.w3.org/2000/svg" xmlns:xlink="http://www.w3.org/1999/xlink"><defs node-id="50"><clipPath id="clippath" node-id="5"><path d="M 0.00 0.00 L 1024.00 0.00 L 1024.00 1024.00 L 0.00 1024.00 Z" fill="#000000" fill-rule="nonzero" node-id="53" stroke="none" target-height="1024" target-width="1024" target-x="0" target-y="0"></path></clipPath></defs><g node-id="151"><g clip-path="url(#clippath)" group-id="1" node-id="59"><path d="M 940.07 956.81 L 84.60 956.81" fill="none" group-id="1,2" node-id="61" stroke="#373435" stroke-linecap="round" stroke-width="1.42" target-height="0" target-width="855.47003" target-x="84.6" target-y="956.81006"></path><path d="M 424.31 878.78 C 423.44 880.57 586.53 875.31 606.68 878.78 L 620.55 786.93 C 624.89 754.51 626.32 745.31 616.18 703.08 L 587.35 579.16 L 448.09 535.30 C 435.40 606.19 425.48 661.59 412.79 732.48 C 407.73 759.35 403.92 767.55 412.55 806.55 L 424.32 878.79 Z" fill="#fefefe" fill-rule="evenodd" group-id="1,2" node-id="63" stroke="none" target-height="345.27008" target-width="222.40002" target-x="403.91998" target-y="535.3"></path><path d="M 424.31 878.78 C 423.44 880.57 586.53 875.31 606.68 878.78 L 620.55 786.93 C 624.89 754.51 626.32 745.31 616.18 703.08 L 587.35 579.16 L 448.09 535.30 C 435.40 606.19 425.48 661.59 412.79 732.48 C 407.73 759.35 403.92 767.55 412.55 806.55 L 424.32 878.79 Z" fill="none" group-id="1,2" node-id="65" stroke="#373435" stroke-linecap="round" stroke-width="1.42" target-height="345.27008" target-width="222.40002" target-x="403.91998" target-y="535.3"></path><path d="M 514.79 878.81 C 515.20 881.83 514.67 956.40 514.67 956.40 C 514.67 956.40 334.01 956.62 334.19 956.12 C 350.45 911.33 394.39 925.85 424.31 878.77 L 514.79 878.80 Z" fill="#d2d3d5" fill-rule="evenodd" group-id="1,2" node-id="67" stroke="none" target-height="77.849976" target-width="181.19" target-x="334.01" target-y="878.77"></path><path d="M 514.79 878.81 C 515.20 881.83 514.67 956.40 514.67 956.40 C 514.67 956.40 334.01 956.62 334.19 956.12 C 350.45 911.33 394.39 925.85 424.31 878.77 L 514.79 878.80 Z" fill="none" group-id="1,2" node-id="69" stroke="#373435" stroke-linecap="round" stroke-width="1.42" target-height="77.849976" target-width="181.19" target-x="334.01" target-y="878.77"></path><path d="M 514.78 878.70 C 514.27 881.72 513.81 956.40 513.81 956.40 C 513.81 956.40 694.41 956.63 694.30 956.12 C 684.28 910.08 635.08 925.85 606.69 878.77 L 514.78 878.69 Z" fill="#d2d3d5" fill-rule="evenodd" group-id="1,2" node-id="71" stroke="none" target-height="77.94" target-width="180.59998" target-x="513.81" target-y="878.69"></path><path d="M 514.78 878.70 C 514.27 881.72 513.81 956.40 513.81 956.40 C 513.81 956.40 694.41 956.63 694.30 956.12 C 684.28 910.08 635.08 925.85 606.69 878.77 L 514.78 878.69 Z" fill="none" group-id="1,2" node-id="73" stroke="#373435" stroke-linecap="round" stroke-width="1.42" target-height="77.94" target-width="180.59998" target-x="513.81" target-y="878.69"></path><path d="M 538.20 343.39 L 485.49 342.86 L 485.55 299.07 L 486.94 220.55 C 486.54 196.24 512.48 180.33 532.54 198.29 C 538.38 203.52 553.25 227.89 558.57 235.89 C 569.38 252.16 580.75 270.30 573.54 281.78 C 569.36 288.42 557.54 295.04 537.02 290.84 L 538.21 343.38 Z" fill="#fefefe" fill-rule="evenodd" group-id="1,2" node-id="75" stroke="none" target-height="163.06001" target-width="95.26001" target-x="485.49" target-y="180.33"></path><path d="M 538.20 343.39 L 485.49 342.86 L 485.55 299.07 L 486.94 220.55 C 486.54 196.24 512.48 180.33 532.54 198.29 C 538.38 203.52 553.25 227.89 558.57 235.89 C 569.38 252.16 580.75 270.30 573.54 281.78 C 569.36 288.42 557.54 295.04 537.02 290.84 L 538.21 343.38 Z" fill="none" group-id="1,2" node-id="77" stroke="#373435" stroke-linecap="round" stroke-width="1.42" target-height="163.06001" target-width="95.26001" target-x="485.49" target-y="180.33"></path><path d="M 548.22 257.89 C 542.89 260.63 529.63 268.23 522.50 253.82" fill="none" group-id="1,2" node-id="79" stroke="#373435" stroke-linecap="round" stroke-width="1.42" target-height="14.410004" target-width="25.71997" target-x="522.5" target-y="253.82"></path><path d="M 515.48 878.03 L 516.35 668.95" fill="none" group-id="1,2" node-id="81" stroke="#373435" stroke-linecap="round" stroke-width="1.42" target-height="209.08002" target-width="0.8699951" target-x="515.48" target-y="668.95"></path><path d="M 331.78 212.77 L 396.69 213.33 L 253.97 77.30 L 255.43 267.46 L 302.91 222.22 L 346.67 317.77 L 369.29 294.14 L 331.78 212.77 Z" fill="#d2d3d5" fill-rule="evenodd" group-id="1,2" node-id="83" stroke="none" target-height="240.46999" target-width="142.72003" target-x="253.97" target-y="77.3"></path><path d="M 331.78 212.77 L 396.69 213.33 L 253.97 77.30 L 255.43 267.46 L 302.91 222.22 L 346.67 317.77 L 369.29 294.14 L 331.78 212.77 Z" fill="none" group-id="1,2" node-id="85" stroke="#373435" stroke-linecap="round" stroke-width="1.42" target-height="240.46999" target-width="142.72003" target-x="253.97" target-y="77.3"></path><path d="M 732.64 665.25 C 771.42 704.03 771.42 766.91 732.64 805.70 C 693.86 844.48 630.98 844.48 592.19 805.70 C 553.41 766.91 553.41 704.03 592.19 665.25 C 630.98 626.47 693.86 626.47 732.64 665.25 Z" fill="#d2d3d5" fill-rule="nonzero" group-id="1,2,3" node-id="89" stroke="none" target-height="218.01154" target-width="218.0116" target-x="553.41174" target-y="626.4684"></path><path d="M 732.64 665.25 C 771.42 704.03 771.42 766.91 732.64 805.70 C 693.86 844.48 630.98 844.48 592.19 805.70 C 553.41 766.91 553.41 704.03 592.19 665.25 C 630.98 626.47 693.86 626.47 732.64 665.25 Z" fill="none" group-id="1,2,4" node-id="94" stroke="#373435" stroke-linecap="round" stroke-width="1.42" target-height="218.01154" target-width="218.0116" target-x="553.41174" target-y="626.4684"></path><path d="M 480.06 343.60 C 479.31 346.09 445.13 556.80 440.26 583.36 C 440.19 583.75 588.48 584.16 588.48 584.16 C 578.67 542.63 559.71 422.24 547.24 360.56 C 546.65 357.63 543.84 343.93 530.98 343.71 C 522.21 343.56 480.05 343.61 480.05 343.61 Z" fill="#373435" fill-rule="evenodd" group-id="1,2" node-id="97" stroke="none" target-height="240.59998" target-width="148.28998" target-x="440.19" target-y="343.56"></path><path d="M 480.06 343.60 C 479.31 346.09 445.13 556.80 440.26 583.36 C 440.19 583.75 588.48 584.16 588.48 584.16 C 578.67 542.63 559.71 422.24 547.24 360.56 C 546.65 357.63 543.84 343.93 530.98 343.71 C 522.21 343.56 480.05 343.61 480.05 343.61 Z" fill="#c084fc" fill-rule="nonzero" group-id="1,2" node-id="99" stroke="#373435" stroke-linecap="round" stroke-width="1.42" target-height="240.59998" target-width="148.28998" target-x="440.19" target-y="343.56"></path><path d="M 537.08 395.75 L 538.20 343.39 L 619.17 379.58 C 624.61 382.17 638.57 381.74 643.42 377.72 L 739.19 311.80 L 842.42 373.99 L 858.59 382.70 L 691.93 453.59 C 668.05 464.29 641.90 466.73 618.55 452.14 L 537.08 395.75 Z" fill="#373435" fill-rule="evenodd" group-id="1,2" node-id="101" stroke="none" target-height="154.93002" target-width="321.51" target-x="537.08" target-y="311.8"></path><path d="M 537.08 395.75 L 538.20 343.39 L 619.17 379.58 C 624.61 382.17 638.57 381.74 643.42 377.72 L 739.19 311.80 L 842.42 373.99 L 858.59 382.70 L 691.93 453.59 C 668.05 464.29 641.90 466.73 618.55 452.14 L 537.08 395.75 Z" fill="#c084fc" fill-rule="nonzero" group-id="1,2" node-id="103" stroke="#373435" stroke-linecap="round" stroke-width="1.42" target-height="154.93002" target-width="321.51" target-x="537.08" target-y="311.8"></path><path d="M 484.22 395.75 L 483.10 343.39 L 402.13 379.58 C 396.69 382.17 382.73 381.74 377.88 377.72 L 282.11 311.80 L 178.88 373.99 L 162.71 382.70 L 329.37 453.59 C 353.25 464.29 379.40 466.73 402.75 452.14 L 484.22 395.75 Z" fill="#373435" fill-rule="evenodd" group-id="1,2" node-id="105" stroke="none" target-height="154.93002" target-width="321.50995" target-x="162.71" target-y="311.8"></path><path d="M 484.22 395.75 L 483.10 343.39 L 402.13 379.58 C 396.69 382.17 382.73 381.74 377.88 377.72 L 282.11 311.80 L 178.88 373.99 L 162.71 382.70 L 329.37 453.59 C 353.25 464.29 379.40 466.73 402.75 452.14 L 484.22 395.75 Z" fill="#c084fc" fill-rule="nonzero" group-id="1,2" node-id="107" stroke="#373435" stroke-linecap="round" stroke-width="1.42" target-height="154.93002" target-width="321.50995" target-x="162.71" target-y="311.8"></path><path d="M 739.19 311.80 C 753.57 287.42 748.01 245.28 755.33 222.72 C 759.44 210.05 771.83 198.02 789.40 206.81 C 812.02 218.13 802.99 258.79 809.82 258.17 C 812.44 257.93 819.29 254.67 823.35 252.98 C 835.46 247.97 862.30 237.51 885.05 244.33 C 896.37 247.72 907.50 256.25 903.25 270.18 C 900.59 278.92 895.90 278.83 895.39 278.53 C 894.82 278.19 919.27 278.64 928.18 283.60 C 946.45 293.77 942.34 310.80 937.15 314.34 C 930.90 318.60 922.09 316.40 935.19 319.68 C 953.07 324.16 960.81 358.70 920.53 363.36 C 892.14 366.65 827.17 396.05 827.17 396.05 C 823.19 397.74 752.72 322.84 739.18 311.80 Z" fill="#fefefe" fill-rule="evenodd" group-id="1,2" node-id="109" stroke="none" target-height="199.71997" target-width="221.63" target-x="739.18" target-y="198.02002"></path><path d="M 739.19 311.80 C 753.57 287.42 748.01 245.28 755.33 222.72 C 759.44 210.05 771.83 198.02 789.40 206.81 C 812.02 218.13 802.99 258.79 809.82 258.17 C 812.44 257.93 819.29 254.67 823.35 252.98 C 835.46 247.97 862.30 237.51 885.05 244.33 C 896.37 247.72 907.50 256.25 903.25 270.18 C 900.59 278.92 895.90 278.83 895.39 278.53 C 894.82 278.19 919.27 278.64 928.18 283.60 C 946.45 293.77 942.34 310.80 937.15 314.34 C 930.90 318.60 922.09 316.40 935.19 319.68 C 953.07 324.16 960.81 358.70 920.53 363.36 C 892.14 366.65 827.17 396.05 827.17 396.05 C 823.19 397.74 752.72 322.84 739.18 311.80 Z" fill="none" group-id="1,2" node-id="111" stroke="#373435" stroke-linecap="round" stroke-width="1.42" target-height="199.71997" target-width="221.63" target-x="739.18" target-y="198.02002"></path><path d="M 852.08 287.44 C 870.93 279.20 886.12 279.28 898.20 278.33" fill="none" group-id="1,2" node-id="113" stroke="#373435" stroke-linecap="round" stroke-width="1.42" target-height="9.110016" target-width="46.120117" target-x="852.07996" target-y="278.33"></path><path d="M 882.30 325.51 C 893.79 320.78 902.17 319.54 929.16 317.25" fill="none" group-id="1,2" node-id="115" stroke="#373435" stroke-linecap="round" stroke-width="1.42" target-height="8.26001" target-width="46.859924" target-x="882.30005" target-y="317.25"></path><path d="M 809.82 258.16 C 810.87 270.30 820.48 275.19 820.48 309.11 L 820.48 312.68" fill="none" group-id="1,2" node-id="117" stroke="#373435" stroke-linecap="round" stroke-width="1.42" target-height="54.51999" target-width="10.659973" target-x="809.82" target-y="258.16"></path><path d="M 285.66 312.97 C 271.28 288.59 276.84 246.45 269.52 223.89 C 265.41 211.22 253.02 199.19 235.45 207.98 C 212.82 219.30 221.86 259.96 215.03 259.34 C 212.41 259.10 205.56 255.84 201.50 254.16 C 189.39 249.15 162.55 238.69 139.80 245.51 C 128.48 248.90 117.35 257.43 121.60 271.36 C 124.26 280.10 128.95 280.01 129.46 279.71 C 130.03 279.37 105.58 279.82 96.67 284.78 C 78.40 294.95 82.51 311.98 87.70 315.52 C 93.95 319.78 102.76 317.58 89.66 320.86 C 71.78 325.34 64.04 359.88 104.32 364.54 C 132.71 367.83 197.68 397.23 197.68 397.23 C 201.66 398.92 272.13 324.02 285.67 312.98 Z" fill="#fefefe" fill-rule="evenodd" group-id="1,2" node-id="119" stroke="none" target-height="199.73001" target-width="221.63" target-x="64.04" target-y="199.19"></path><path d="M 285.66 312.97 C 271.28 288.59 276.84 246.45 269.52 223.89 C 265.41 211.22 253.02 199.19 235.45 207.98 C 212.82 219.30 221.86 259.96 215.03 259.34 C 212.41 259.10 205.56 255.84 201.50 254.16 C 189.39 249.15 162.55 238.69 139.80 245.51 C 128.48 248.90 117.35 257.43 121.60 271.36 C 124.26 280.10 128.95 280.01 129.46 279.71 C 130.03 279.37 105.58 279.82 96.67 284.78 C 78.40 294.95 82.51 311.98 87.70 315.52 C 93.95 319.78 102.76 317.58 89.66 320.86 C 71.78 325.34 64.04 359.88 104.32 364.54 C 132.71 367.83 197.68 397.23 197.68 397.23 C 201.66 398.92 272.13 324.02 285.67 312.98 Z" fill="none" group-id="1,2" node-id="121" stroke="#373435" stroke-linecap="round" stroke-width="1.42" target-height="199.73001" target-width="221.63" target-x="64.04" target-y="199.19"></path><path d="M 172.78 288.61 C 153.93 280.37 138.74 280.45 126.66 279.50" fill="none" group-id="1,2" node-id="123" stroke="#373435" stroke-linecap="round" stroke-width="1.42" target-height="9.109985" target-width="46.11998" target-x="126.66" target-y="279.5"></path><path d="M 142.55 326.68 C 131.06 321.95 122.68 320.70 95.69 318.42" fill="none" group-id="1,2" node-id="125" stroke="#373435" stroke-linecap="round" stroke-width="1.42" target-height="8.259979" target-width="46.86" target-x="95.69" target-y="318.42"></path><path d="M 215.03 259.34 C 213.98 271.48 204.37 276.37 204.37 310.29 L 204.37 313.86" fill="none" group-id="1,2" node-id="127" stroke="#373435" stroke-linecap="round" stroke-width="1.42" target-height="54.51999" target-width="10.660004" target-x="204.37" target-y="259.34"></path><path d="M 957.89 560.09 L 955.92 560.12 L 957.89 560.09 Z M 836.53 440.72 C 836.53 506.66 889.99 560.11 955.92 560.11 C 889.98 560.11 836.53 613.57 836.53 679.50 L 836.53 680.48 C 836.53 680.48 836.53 679.50 836.53 679.50 C 836.53 613.56 783.08 560.11 717.14 560.11 L 715.18 560.08 L 717.14 560.11 C 783.08 560.11 836.53 506.65 836.53 440.72 Z M 836.49 437.77 L 836.53 440.45 L 836.49 437.77 Z" fill="#fefefe" fill-rule="evenodd" group-id="1,2" node-id="129" stroke="none" target-height="242.70999" target-width="242.70996" target-x="715.18005" target-y="437.77"></path><path d="M 957.89 560.09 L 955.92 560.12 L 957.89 560.09 Z M 836.53 440.72 C 836.53 506.66 889.99 560.11 955.92 560.11 C 889.98 560.11 836.53 613.57 836.53 679.50 L 836.53 680.48 C 836.53 680.48 836.53 679.50 836.53 679.50 C 836.53 613.56 783.08 560.11 717.14 560.11 L 715.18 560.08 L 717.14 560.11 C 783.08 560.11 836.53 506.65 836.53 440.72 Z M 836.49 437.77 L 836.53 440.45 L 836.49 437.77 Z" fill="none" group-id="1,2" node-id="131" stroke="#373435" stroke-linecap="round" stroke-width="1.42" target-height="242.70999" target-width="242.70996" target-x="715.18005" target-y="437.77"></path><path d="M 56.97 446.90 L 191.24 353.86 L 284.29 488.13 L 150.01 581.18 Z" fill="#fefefe" fill-rule="nonzero" group-id="1,2,5" node-id="135" stroke="none" target-height="227.31735" target-width="227.3174" target-x="56.96855" target-y="353.85983"></path><path d="M 56.97 446.90 L 191.24 353.86 L 284.29 488.13 L 150.01 581.18 Z" fill="none" group-id="1,2,6" node-id="140" stroke="#373435" stroke-linecap="round" stroke-width="1.42" target-height="227.31735" target-width="227.3174" target-x="56.96855" target-y="353.85983"></path><path d="M 285.03 606.25 C 296.49 626.53 305.68 626.77 325.17 621.79 C 352.49 614.81 346.58 612.75 341.22 641.36 C 337.51 661.14 342.72 668.44 356.93 678.34 C 381.56 695.51 381.09 687.28 356.42 704.72 C 339.01 717.03 337.01 724.97 341.47 742.43 C 348.77 770.97 351.42 768.25 322.85 760.40 C 301.10 754.43 295.59 759.11 285.21 776.22 C 269.82 801.59 274.99 801.06 259.14 775.76 C 248.94 759.47 241.41 755.71 222.60 760.21 C 192.10 767.51 196.89 770.95 203.75 739.97 C 208.02 720.69 204.81 714.71 188.21 704.73 C 161.48 688.65 162.22 693.11 189.64 677.15 C 204.02 668.78 207.73 658.37 203.58 642.12 C 195.87 611.90 192.36 615.23 222.52 622.53 C 241.37 627.09 248.97 624.57 258.82 607.51 C 273.88 581.41 270.44 580.42 285.03 606.25 Z" fill="#373435" fill-rule="evenodd" group-id="1,2" node-id="143" stroke="none" target-height="221.1701" target-width="220.08" target-x="161.48" target-y="580.42"></path><path d="M 285.03 606.25 C 296.49 626.53 305.68 626.77 325.17 621.79 C 352.49 614.81 346.58 612.75 341.22 641.36 C 337.51 661.14 342.72 668.44 356.93 678.34 C 381.56 695.51 381.09 687.28 356.42 704.72 C 339.01 717.03 337.01 724.97 341.47 742.43 C 348.77 770.97 351.42 768.25 322.85 760.40 C 301.10 754.43 295.59 759.11 285.21 776.22 C 269.82 801.59 274.99 801.06 259.14 775.76 C 248.94 759.47 241.41 755.71 222.60 760.21 C 192.10 767.51 196.89 770.95 203.75 739.97 C 208.02 720.69 204.81 714.71 188.21 704.73 C 161.48 688.65 162.22 693.11 189.64 677.15 C 204.02 668.78 207.73 658.37 203.58 642.12 C 195.87 611.90 192.36 615.23 222.52 622.53 C 241.37 627.09 248.97 624.57 258.82 607.51 C 273.88 581.41 270.44 580.42 285.03 606.25 Z" fill="#ac9fb9" fill-rule="nonzero" group-id="1,2" node-id="145" stroke="#ffffff" stroke-linecap="round" stroke-width="15.2" target-height="221.1701" target-width="220.08" target-x="161.48" target-y="580.42"></path><path d="M 655.10 103.22 L 683.18 119.43 L 711.26 135.64 L 711.26 168.07 L 711.26 200.50 L 683.18 216.71 L 655.10 232.92 L 627.02 216.71 L 598.94 200.50 L 598.94 168.07 L 598.94 135.64 L 627.02 119.43 L 655.10 103.22 Z" fill="#373435" fill-rule="evenodd" group-id="1,2" node-id="147" stroke="none" target-height="129.7" target-width="112.32001" target-x="598.94" target-y="103.22"></path><path d="M 655.10 103.22 L 683.18 119.43 L 711.26 135.64 L 711.26 168.07 L 711.26 200.50 L 683.18 216.71 L 655.10 232.92 L 627.02 216.71 L 598.94 200.50 L 598.94 168.07 L 598.94 135.64 L 627.02 119.43 L 655.10 103.22 Z" fill="#7c7c7c" fill-rule="nonzero" group-id="1,2" node-id="149" stroke="#373435" stroke-linecap="round" stroke-width="1.42" target-height="129.7" target-width="112.32001" target-x="598.94" target-y="103.22"></path></g></g></svg>