<?xml version="1.0" standalone="no"?><!DOCTYPE svg PUBLIC "-//W3C//DTD SVG 1.1//EN" "http://www.w3.org/Graphics/SVG/1.1/DTD/svg11.dtd"><svg t="1754189406013" class="icon" viewBox="0 0 1024 1024" version="1.1" xmlns="http://www.w3.org/2000/svg" p-id="12410" xmlns:xlink="http://www.w3.org/1999/xlink" width="200" height="200"><path d="M75.896471 66.258824v891.482352h891.482353v-891.482352h-891.482353z m351.774117 284.310588H378.311379v141.114428l-16.292443 13.020461-12.731331 10.172537 12.726513 10.167717 16.297261 13.020461v147.412631H427.670588v86.738824H291.572555v-192.43008l-38.83008-31.023586-42.400828-33.87633 42.396009-33.885967 38.834899-31.033223V263.830588H427.670588v86.738824z m361.691257 198.193393l-38.83008 31.023586v192.43008h-136.098033v-86.738824h49.359209v-147.412631l16.297261-13.020461 12.726513-10.167717-12.731331-10.172537-16.292443-13.020461V350.569412h-49.359209v-86.738824h136.098033v186.136697l38.834899 31.033223 42.396009 33.881148-42.400828 33.881149z" p-id="12411" fill="#ffffff"></path></svg>