<?xml version="1.0" standalone="no"?><!DOCTYPE svg PUBLIC "-//W3C//DTD SVG 1.1//EN" "http://www.w3.org/Graphics/SVG/1.1/DTD/svg11.dtd"><svg height="1024" node-id="1" sillyvg="true" template-height="1024" template-width="1024" version="1.1" viewBox="0 0 1024 1024" width="1024" xmlns="http://www.w3.org/2000/svg" xmlns:xlink="http://www.w3.org/1999/xlink"><defs node-id="48"><clipPath id="clippath" node-id="5"><path d="M 0.00 0.00 L 1024.00 0.00 L 1024.00 1024.00 L 0.00 1024.00 Z" fill="#000000" fill-rule="nonzero" node-id="51" stroke="none" target-height="1024" target-width="1024" target-x="0" target-y="0"></path></clipPath></defs><g node-id="133"><g clip-path="url(#clippath)" group-id="1" node-id="57"><path d="M 94.55 907.96 L 950.02 907.96" fill="none" group-id="1,2" node-id="59" stroke="#373435" stroke-linecap="round" stroke-width="1.42" target-height="0" target-width="855.47003" target-x="94.55" target-y="907.96"></path><path d="M 212.71 384.32 L 798.33 384.32 C 851.69 384.32 895.35 427.98 895.35 481.34 C 895.35 534.70 851.69 578.36 798.33 578.36 L 212.71 578.36 C 159.35 578.36 115.69 534.70 115.69 481.34 C 115.69 427.98 159.35 384.32 212.71 384.32 Z" fill="#fefefe" fill-rule="evenodd" group-id="1,2" node-id="61" stroke="none" target-height="194.03998" target-width="779.66" target-x="115.69" target-y="384.32"></path><path d="M 212.71 384.32 L 798.33 384.32 C 851.69 384.32 895.35 427.98 895.35 481.34 C 895.35 534.70 851.69 578.36 798.33 578.36 L 212.71 578.36 C 159.35 578.36 115.69 534.70 115.69 481.34 C 115.69 427.98 159.35 384.32 212.71 384.32 Z" fill="none" group-id="1,2" node-id="63" stroke="#373435" stroke-linecap="round" stroke-width="1.42" target-height="194.03998" target-width="779.66" target-x="115.69" target-y="384.32"></path><path d="M 584.52 432.52 L 576.57 304.02 C 586.00 300.72 601.77 296.79 618.98 282.07 C 627.03 275.18 637.50 261.86 646.60 256.06 C 659.45 247.87 676.70 254.76 677.09 271.08 C 677.37 282.69 658.92 311.57 658.92 311.57 C 663.00 311.18 661.10 310.92 680.46 311.24 C 707.07 311.68 714.39 347.42 685.29 354.81 C 673.56 357.79 680.45 357.92 689.02 357.66 C 717.78 356.78 724.61 402.90 687.33 404.00 C 653.06 405.01 679.41 401.77 691.53 407.49 C 712.78 417.53 704.12 455.30 667.13 448.46 C 660.26 447.19 584.40 434.08 584.51 432.53 Z" fill="#fefefe" fill-rule="evenodd" group-id="1,2" node-id="65" stroke="none" target-height="207.43" target-width="148.03998" target-x="576.57" target-y="247.87"></path><path d="M 584.52 432.52 L 576.57 304.02 C 586.00 300.72 601.77 296.79 618.98 282.07 C 627.03 275.18 637.50 261.86 646.60 256.06 C 659.45 247.87 676.70 254.76 677.09 271.08 C 677.37 282.69 658.92 311.57 658.92 311.57 C 663.00 311.18 661.10 310.92 680.46 311.24 C 707.07 311.68 714.39 347.42 685.29 354.81 C 673.56 357.79 680.45 357.92 689.02 357.66 C 717.78 356.78 724.61 402.90 687.33 404.00 C 653.06 405.01 679.41 401.77 691.53 407.49 C 712.78 417.53 704.12 455.30 667.13 448.46 C 660.26 447.19 584.40 434.08 584.51 432.53 Z" fill="none" group-id="1,2" node-id="67" stroke="#373435" stroke-linecap="round" stroke-width="1.42" target-height="207.43" target-width="148.03998" target-x="576.57" target-y="247.87"></path><path d="M 650.16 315.45 C 617.82 325.14 623.24 360.51 654.32 359.40 C 661.94 359.13 673.62 358.41 680.98 356.39" fill="none" group-id="1,2" node-id="69" stroke="#373435" stroke-linecap="round" stroke-width="1.42" target-height="45.059998" target-width="63.159973" target-x="617.82" target-y="315.45"></path><path d="M 642.73 357.79 C 624.67 362.75 623.01 399.47 653.15 401.90 C 654.07 401.98 677.78 404.35 677.78 404.35" fill="none" group-id="1,2" node-id="71" stroke="#373435" stroke-linecap="round" stroke-width="1.42" target-height="46.559998" target-width="54.77002" target-x="623.01" target-y="357.79"></path><path d="M 647.85 401.06 C 629.79 404.08 623.66 429.32 639.45 440.62 C 643.13 443.25 654.81 445.85 659.79 447.14" fill="none" group-id="1,2" node-id="73" stroke="#373435" stroke-linecap="round" stroke-width="1.42" target-height="46.080017" target-width="36.130005" target-x="623.66" target-y="401.06"></path><path d="M 625.50 277.05 L 641.23 317.49" fill="none" group-id="1,2" node-id="75" stroke="#373435" stroke-linecap="round" stroke-width="1.42" target-height="40.440002" target-width="15.72998" target-x="625.5" target-y="277.05"></path><path d="M 457.36 345.73 L 586.00 300.72 L 586.43 432.74 L 460.28 407.38 L 457.36 345.73 Z" fill="#373435" fill-rule="evenodd" group-id="1,2" node-id="77" stroke="none" target-height="132.01999" target-width="129.07" target-x="457.36" target-y="300.72"></path><path d="M 457.36 345.73 L 586.00 300.72 L 586.43 432.74 L 460.28 407.38 L 457.36 345.73 Z" fill="none" group-id="1,2" node-id="79" stroke="#373435" stroke-linecap="round" stroke-width="1.42" target-height="132.01999" target-width="129.07" target-x="457.36" target-y="300.72"></path><path d="M 414.37 328.08 C 413.19 330.30 340.74 521.15 331.04 546.00 C 330.90 546.37 475.71 597.77 475.53 595.38 C 471.41 541.33 466.01 432.63 466.38 366.56 C 466.40 363.42 466.45 348.73 454.51 343.98 C 446.37 340.75 414.36 328.08 414.36 328.08 Z" fill="#373435" fill-rule="evenodd" group-id="1,2" node-id="81" stroke="none" target-height="269.69003" target-width="144.80997" target-x="330.9" target-y="328.08"></path><path d="M 414.37 328.08 C 413.19 330.30 340.74 521.15 331.04 546.00 C 330.90 546.37 475.71 597.77 475.53 595.38 C 471.41 541.33 466.01 432.63 466.38 366.56 C 466.40 363.42 466.45 348.73 454.51 343.98 C 446.37 340.75 414.36 328.08 414.36 328.08 Z" fill="none" group-id="1,2" node-id="83" stroke="#373435" stroke-linecap="round" stroke-width="1.42" target-height="269.69003" target-width="144.80997" target-x="330.9" target-y="328.08"></path><path d="M 222.97 829.81 C 222.10 831.60 312.29 829.78 313.18 829.78 C 313.77 829.63 391.15 723.24 390.08 723.24 C 389.01 723.24 419.86 830.16 420.11 829.70 L 512.00 829.70 L 475.54 595.38 L 331.05 546.00 L 222.97 829.81 Z" fill="#fefefe" fill-rule="evenodd" group-id="1,2" node-id="85" stroke="none" target-height="285.59998" target-width="289.9" target-x="222.1" target-y="546"></path><path d="M 222.97 829.81 C 222.10 831.60 312.29 829.78 313.18 829.78 C 313.77 829.63 391.15 723.24 390.08 723.24 C 389.01 723.24 419.86 830.16 420.11 829.70 L 512.00 829.70 L 475.54 595.38 L 331.05 546.00 L 222.97 829.81 Z" fill="none" group-id="1,2" node-id="87" stroke="#373435" stroke-linecap="round" stroke-width="1.42" target-height="285.59998" target-width="289.9" target-x="222.1" target-y="546"></path><path d="M 222.97 829.81 C 221.22 832.83 188.86 907.40 188.86 907.40 C 188.86 907.40 369.42 907.62 369.46 907.12 C 372.96 862.33 322.61 876.85 313.46 829.77 L 222.97 829.80 Z" fill="#d2d3d5" fill-rule="evenodd" group-id="1,2" node-id="89" stroke="none" target-height="77.849915" target-width="184.10002" target-x="188.86" target-y="829.7701"></path><path d="M 222.97 829.81 C 221.22 832.83 188.86 907.40 188.86 907.40 C 188.86 907.40 369.42 907.62 369.46 907.12 C 372.96 862.33 322.61 876.85 313.46 829.77 L 222.97 829.80 Z" fill="none" group-id="1,2" node-id="91" stroke="#373435" stroke-linecap="round" stroke-width="1.42" target-height="77.849915" target-width="184.10002" target-x="188.86" target-y="829.7701"></path><path d="M 420.11 829.70 C 419.14 832.72 407.36 907.40 407.36 907.40 C 407.36 907.40 587.92 907.63 587.89 907.12 C 584.85 861.08 533.26 876.85 512.01 829.77 L 420.12 829.69 Z" fill="#d2d3d5" fill-rule="evenodd" group-id="1,2" node-id="93" stroke="none" target-height="77.94" target-width="180.56" target-x="407.36" target-y="829.69"></path><path d="M 420.11 829.70 C 419.14 832.72 407.36 907.40 407.36 907.40 C 407.36 907.40 587.92 907.63 587.89 907.12 C 584.85 861.08 533.26 876.85 512.01 829.77 L 420.12 829.69 Z" fill="none" group-id="1,2" node-id="95" stroke="#373435" stroke-linecap="round" stroke-width="1.42" target-height="77.94" target-width="180.56" target-x="407.36" target-y="829.69"></path><path d="M 462.92 346.37 L 415.21 328.41 L 426.73 295.50 L 453.89 221.76 C 461.51 198.68 491.43 191.63 504.60 214.76 C 508.43 221.49 514.57 249.08 516.99 258.28 C 521.92 276.97 526.77 297.61 516.13 306.23 C 509.97 311.22 496.54 313.84 478.40 303.56 L 462.92 346.36 Z" fill="#fefefe" fill-rule="evenodd" group-id="1,2" node-id="97" stroke="none" target-height="154.73999" target-width="111.56003" target-x="415.21" target-y="191.63"></path><path d="M 462.92 346.37 L 415.21 328.41 L 426.73 295.50 L 453.89 221.76 C 461.51 198.68 491.43 191.63 504.60 214.76 C 508.43 221.49 514.57 249.08 516.99 258.28 C 521.92 276.97 526.77 297.61 516.13 306.23 C 509.97 311.22 496.54 313.84 478.40 303.56 L 462.92 346.36 Z" fill="none" group-id="1,2" node-id="99" stroke="#373435" stroke-linecap="round" stroke-width="1.42" target-height="154.73999" target-width="111.56003" target-x="415.21" target-y="191.63"></path><path d="M 499.92 275.88 C 493.94 276.83 478.82 279.93 476.78 264.13" fill="none" group-id="1,2" node-id="101" stroke="#373435" stroke-linecap="round" stroke-width="1.42" target-height="15.799988" target-width="23.139984" target-x="476.78" target-y="264.13"></path><path d="M 589.47 107.90 C 536.92 107.90 494.32 150.50 494.32 203.05 C 494.32 255.60 536.92 298.20 589.47 298.20 C 642.02 298.20 684.62 255.60 684.62 203.05 C 684.62 150.50 642.02 107.90 589.47 107.90 Z" fill="#d2d3d5" fill-rule="evenodd" group-id="1,2" node-id="103" stroke="none" target-height="190.3" target-width="190.29996" target-x="494.32004" target-y="107.90001"></path><path d="M 589.47 107.90 C 536.92 107.90 494.32 150.50 494.32 203.05 C 494.32 255.60 536.92 298.20 589.47 298.20 C 642.02 298.20 684.62 255.60 684.62 203.05 C 684.62 150.50 642.02 107.90 589.47 107.90 Z" fill="none" group-id="1,2" node-id="105" stroke="#373435" stroke-linecap="round" stroke-width="1.42" target-height="190.3" target-width="190.29996" target-x="494.32004" target-y="107.90001"></path><path d="M 589.47 161.84 C 554.44 161.84 526.04 198.51 526.04 203.05 C 526.04 207.59 554.44 244.26 589.47 244.26 C 624.50 244.26 652.90 208.72 652.90 203.05 C 652.90 197.38 624.50 161.84 589.47 161.84 Z" fill="#fefefe" fill-rule="evenodd" group-id="1,2" node-id="107" stroke="none" target-height="82.42001" target-width="126.86005" target-x="526.04" target-y="161.84"></path><path d="M 589.47 161.84 C 554.44 161.84 526.04 198.51 526.04 203.05 C 526.04 207.59 554.44 244.26 589.47 244.26 C 624.50 244.26 652.90 208.72 652.90 203.05 C 652.90 197.38 624.50 161.84 589.47 161.84 Z" fill="none" group-id="1,2" node-id="109" stroke="#373435" stroke-linecap="round" stroke-width="1.42" target-height="82.42001" target-width="126.86005" target-x="526.04" target-y="161.84"></path><path d="M 603.22 198.40 C 614.37 198.40 623.41 207.44 623.41 218.59 C 623.41 229.74 614.37 238.78 603.22 238.78 C 592.07 238.78 583.03 229.74 583.03 218.59 C 583.03 207.44 592.07 198.40 603.22 198.40 Z" fill="#373435" fill-rule="evenodd" group-id="1,2" node-id="111" stroke="none" target-height="40.380005" target-width="40.379944" target-x="583.03" target-y="198.4"></path><path d="M 603.22 198.40 C 614.37 198.40 623.41 207.44 623.41 218.59 C 623.41 229.74 614.37 238.78 603.22 238.78 C 592.07 238.78 583.03 229.74 583.03 218.59 C 583.03 207.44 592.07 198.40 603.22 198.40 Z" fill="none" group-id="1,2" node-id="113" stroke="#373435" stroke-linecap="round" stroke-width="1.42" target-height="40.380005" target-width="40.379944" target-x="583.03" target-y="198.4"></path><path d="M 400.94 383.84 L 414.37 328.08 L 277.17 376.64 C 258.03 384.46 238.13 400.90 247.12 429.15 L 269.25 480.98 L 285.80 520.56 L 400.22 461.55 L 355.60 409.02 L 400.94 383.83 Z" fill="#373435" fill-rule="evenodd" group-id="1,2" node-id="115" stroke="none" target-height="192.48001" target-width="176.23999" target-x="238.13" target-y="328.08"></path><path d="M 400.94 383.84 L 414.37 328.08 L 277.17 376.64 C 258.03 384.46 238.13 400.90 247.12 429.15 L 269.25 480.98 L 285.80 520.56 L 400.22 461.55 L 355.60 409.02 L 400.94 383.83 Z" fill="none" group-id="1,2" node-id="117" stroke="#373435" stroke-linecap="round" stroke-width="1.42" target-height="192.48001" target-width="176.23999" target-x="238.13" target-y="328.08"></path><path d="M 370.43 417.30 L 408.60 464.76 L 340.85 499.77" fill="none" group-id="1,2" node-id="119" stroke="#fefefe" stroke-linecap="round" stroke-width="1.42" target-height="82.47" target-width="67.75" target-x="340.85" target-y="417.3"></path><path d="M 287.22 524.30 L 408.85 463.08 C 421.50 469.67 422.73 470.10 435.79 477.87 C 455.84 489.79 459.13 519.43 426.98 528.19 C 421.07 529.80 368.67 522.77 368.67 522.77 C 368.39 522.89 324.46 598.63 316.91 614.96 C 304.54 641.72 258.65 626.31 274.65 594.08 C 287.15 568.90 292.28 542.82 287.22 524.29 Z" fill="#fefefe" fill-rule="evenodd" group-id="1,2" node-id="121" stroke="none" target-height="178.63998" target-width="200.48001" target-x="258.65" target-y="463.08"></path><path d="M 287.22 524.30 L 408.85 463.08 C 421.50 469.67 422.73 470.10 435.79 477.87 C 455.84 489.79 459.13 519.43 426.98 528.19 C 421.07 529.80 368.67 522.77 368.67 522.77 C 368.39 522.89 324.46 598.63 316.91 614.96 C 304.54 641.72 258.65 626.31 274.65 594.08 C 287.15 568.90 292.28 542.82 287.22 524.29 Z" fill="none" group-id="1,2" node-id="123" stroke="#373435" stroke-linecap="round" stroke-width="1.42" target-height="178.63998" target-width="200.48001" target-x="258.65" target-y="463.08"></path><path d="M 387.19 727.69 L 425.29 672.26" fill="none" group-id="1,2" node-id="125" stroke="#373435" stroke-linecap="round" stroke-width="1.42" target-height="55.430054" target-width="38.100006" target-x="387.19" target-y="672.26"></path><path d="M 215.72 549.13 L 215.72 421.03" fill="none" group-id="1,2" node-id="127" stroke="#373435" stroke-linecap="round" stroke-width="1.42" target-height="128.1" target-width="0" target-x="215.72" target-y="421.03"></path><path d="M 632.85 630.66 L 705.66 631.29 L 545.55 478.68 L 547.18 692.03 L 600.45 641.26 L 649.54 748.47 L 674.93 721.95 L 632.85 630.66 Z" fill="#fefefe" fill-rule="evenodd" group-id="1,2" node-id="129" stroke="none" target-height="269.78998" target-width="160.10999" target-x="545.55" target-y="478.68"></path><path d="M 632.85 630.66 L 705.66 631.29 L 545.55 478.68 L 547.18 692.03 L 600.45 641.26 L 649.54 748.47 L 674.93 721.95 L 632.85 630.66 Z" fill="none" group-id="1,2" node-id="131" stroke="#373435" stroke-linecap="round" stroke-width="1.42" target-height="269.78998" target-width="160.10999" target-x="545.55" target-y="478.68"></path></g></g></svg>