<svg width="2335" height="2335" viewBox="0 0 2335 2335" fill="none" xmlns="http://www.w3.org/2000/svg">
<rect width="2335" height="2335" rx="1167.5" fill="#BABABA"/>
<mask id="mask0_299_46" style="mask-type:luminance" maskUnits="userSpaceOnUse" x="403" y="402" width="1530" height="1530">
<path d="M403 402H1933V1932H403V402Z" fill="white"/>
</mask>
<g mask="url(#mask0_299_46)">
<path d="M544.271 1758.62H1822.46" stroke="#373435" stroke-width="1.42" stroke-linecap="round"/>
<path fill-rule="evenodd" clip-rule="evenodd" d="M720.819 976.229H1595.82C1675.54 976.229 1740.78 1041.46 1740.78 1121.19C1740.78 1200.92 1675.54 1266.15 1595.82 1266.15H720.819C641.091 1266.15 575.857 1200.92 575.857 1121.19C575.857 1041.46 641.091 976.229 720.819 976.229Z" fill="#FEFEFE"/>
<path d="M720.819 976.229H1595.82C1675.54 976.229 1740.78 1041.46 1740.78 1121.19C1740.78 1200.92 1675.54 1266.15 1595.82 1266.15H720.819C641.091 1266.15 575.857 1200.92 575.857 1121.19C575.857 1041.46 641.091 976.229 720.819 976.229Z" stroke="#373435" stroke-width="1.42" stroke-linecap="round"/>
<path fill-rule="evenodd" clip-rule="evenodd" d="M1276.35 1048.25L1264.48 856.249C1278.57 851.318 1302.13 845.446 1327.84 823.452C1339.87 813.158 1355.51 793.256 1369.11 784.59C1388.31 772.353 1414.08 782.647 1414.67 807.032C1415.09 824.379 1387.52 867.53 1387.52 867.53C1393.62 866.947 1390.78 866.558 1419.7 867.036C1459.46 867.694 1470.4 921.094 1426.92 932.136C1409.39 936.589 1419.69 936.783 1432.49 936.394C1475.46 935.08 1485.67 1003.99 1429.97 1005.63C1378.76 1007.14 1418.13 1002.3 1436.24 1010.85C1467.99 1025.85 1455.05 1082.28 1399.79 1072.06C1389.52 1070.16 1276.18 1050.58 1276.34 1048.26L1276.35 1048.25Z" fill="#FEFEFE"/>
<path d="M1276.35 1048.25L1264.48 856.249C1278.57 851.318 1302.13 845.446 1327.84 823.452C1339.87 813.158 1355.51 793.256 1369.11 784.59C1388.31 772.353 1414.08 782.647 1414.67 807.032C1415.09 824.379 1387.52 867.53 1387.52 867.53C1393.62 866.947 1390.78 866.558 1419.7 867.036C1459.46 867.694 1470.4 921.094 1426.92 932.136C1409.39 936.589 1419.69 936.783 1432.49 936.394C1475.46 935.08 1485.67 1003.99 1429.97 1005.63C1378.76 1007.14 1418.13 1002.3 1436.24 1010.85C1467.99 1025.85 1455.05 1082.28 1399.79 1072.06C1389.52 1070.16 1276.18 1050.58 1276.34 1048.26L1276.35 1048.25Z" stroke="#373435" stroke-width="1.42" stroke-linecap="round"/>
<path d="M1374.43 873.328C1326.11 887.806 1334.21 940.654 1380.65 938.996C1392.03 938.592 1409.48 937.516 1420.48 934.498" stroke="#373435" stroke-width="1.42" stroke-linecap="round"/>
<path d="M1363.33 936.59C1336.34 944.001 1333.86 998.866 1378.9 1002.5C1380.27 1002.62 1415.7 1006.16 1415.7 1006.16" stroke="#373435" stroke-width="1.42" stroke-linecap="round"/>
<path d="M1370.98 1001.24C1343.99 1005.75 1334.84 1043.46 1358.43 1060.35C1363.93 1064.28 1381.38 1068.16 1388.82 1070.09" stroke="#373435" stroke-width="1.42" stroke-linecap="round"/>
<path d="M1337.58 815.953L1361.09 876.376" stroke="#373435" stroke-width="1.42" stroke-linecap="round"/>
<path fill-rule="evenodd" clip-rule="evenodd" d="M1086.36 918.57L1278.57 851.318L1279.21 1048.57L1090.72 1010.68L1086.36 918.57Z" fill="#373435"/>
<path d="M1086.36 918.57L1278.57 851.318L1279.21 1048.57L1090.72 1010.68L1086.36 918.57Z" stroke="#373435" stroke-width="1.42" stroke-linecap="round"/>
<path fill-rule="evenodd" clip-rule="evenodd" d="M1022.13 892.199C1020.36 895.516 912.113 1180.67 897.62 1217.8C897.411 1218.36 1113.78 1295.15 1113.51 1291.58C1107.35 1210.82 1099.28 1048.41 1099.84 949.694C1099.87 945.002 1099.94 923.053 1082.1 915.956C1069.94 911.13 1022.11 892.199 1022.11 892.199H1022.13Z" fill="#373435"/>
<path d="M1022.13 892.199C1020.36 895.516 912.113 1180.67 897.62 1217.8C897.411 1218.36 1113.78 1295.15 1113.51 1291.58C1107.35 1210.82 1099.28 1048.41 1099.84 949.694C1099.87 945.002 1099.94 923.053 1082.1 915.956C1069.94 911.13 1022.11 892.199 1022.11 892.199H1022.13Z" stroke="#373435" stroke-width="1.42" stroke-linecap="round"/>
<path fill-rule="evenodd" clip-rule="evenodd" d="M736.149 1641.85C734.849 1644.53 869.605 1641.81 870.935 1641.81C871.816 1641.58 987.433 1482.62 985.834 1482.62C984.236 1482.62 1030.33 1642.38 1030.7 1641.69H1168L1113.52 1291.58L897.635 1217.8L736.149 1641.85Z" fill="#FEFEFE"/>
<path d="M736.149 1641.85C734.849 1644.53 869.605 1641.81 870.935 1641.81C871.816 1641.58 987.433 1482.62 985.834 1482.62C984.236 1482.62 1030.33 1642.38 1030.7 1641.69H1168L1113.52 1291.58L897.635 1217.8L736.149 1641.85Z" stroke="#373435" stroke-width="1.42" stroke-linecap="round"/>
<path fill-rule="evenodd" clip-rule="evenodd" d="M736.148 1641.85C733.534 1646.37 685.183 1757.79 685.183 1757.79C685.183 1757.79 954.965 1758.11 955.025 1757.37C960.255 1690.44 885.025 1712.14 871.353 1641.79L736.148 1641.84V1641.85Z" fill="#D2D3D5"/>
<path d="M736.148 1641.85C733.534 1646.37 685.183 1757.79 685.183 1757.79C685.183 1757.79 954.965 1758.11 955.025 1757.37C960.255 1690.44 885.025 1712.14 871.353 1641.79L736.148 1641.84V1641.85Z" stroke="#373435" stroke-width="1.42" stroke-linecap="round"/>
<path fill-rule="evenodd" clip-rule="evenodd" d="M1030.7 1641.69C1029.25 1646.2 1011.65 1757.78 1011.65 1757.78C1011.65 1757.78 1281.44 1758.13 1281.39 1757.37C1276.85 1688.57 1199.77 1712.14 1168.01 1641.79L1030.72 1641.67L1030.7 1641.69Z" fill="#D2D3D5"/>
<path d="M1030.7 1641.69C1029.25 1646.2 1011.65 1757.78 1011.65 1757.78C1011.65 1757.78 1281.44 1758.13 1281.39 1757.37C1276.85 1688.57 1199.77 1712.14 1168.01 1641.79L1030.72 1641.67L1030.7 1641.69Z" stroke="#373435" stroke-width="1.42" stroke-linecap="round"/>
<path fill-rule="evenodd" clip-rule="evenodd" d="M1094.67 919.526L1023.38 892.691L1040.59 843.519L1081.18 733.341C1092.56 698.857 1137.27 688.323 1156.94 722.882C1162.67 732.938 1171.84 774.161 1175.46 787.907C1182.82 815.833 1190.07 846.672 1174.17 859.551C1164.97 867.007 1144.9 870.922 1117.8 855.562L1094.67 919.511V919.526Z" fill="#FEFEFE"/>
<path d="M1094.67 919.526L1023.38 892.691L1040.59 843.519L1081.18 733.341C1092.56 698.857 1137.27 688.323 1156.94 722.882C1162.67 732.938 1171.84 774.161 1175.46 787.907C1182.82 815.833 1190.07 846.672 1174.17 859.551C1164.97 867.007 1144.9 870.922 1117.8 855.562L1094.67 919.511V919.526Z" stroke="#373435" stroke-width="1.42" stroke-linecap="round"/>
<path d="M1149.95 814.205C1141.02 815.624 1118.42 820.256 1115.38 796.648" stroke="#373435" stroke-width="1.42" stroke-linecap="round"/>
<path fill-rule="evenodd" clip-rule="evenodd" d="M1283.75 563.219C1205.23 563.219 1141.58 626.869 1141.58 705.386C1141.58 783.903 1205.23 847.554 1283.75 847.554C1362.27 847.554 1425.92 783.903 1425.92 705.386C1425.92 626.869 1362.27 563.219 1283.75 563.219Z" fill="#D2D3D5"/>
<path d="M1283.75 563.219C1205.23 563.219 1141.58 626.869 1141.58 705.386C1141.58 783.903 1205.23 847.554 1283.75 847.554C1362.27 847.554 1425.92 783.903 1425.92 705.386C1425.92 626.869 1362.27 563.219 1283.75 563.219Z" stroke="#373435" stroke-width="1.42" stroke-linecap="round"/>
<path fill-rule="evenodd" clip-rule="evenodd" d="M1283.75 643.812C1231.41 643.812 1188.98 698.603 1188.98 705.386C1188.98 712.169 1231.41 766.96 1283.75 766.96C1336.09 766.96 1378.52 713.858 1378.52 705.386C1378.52 696.914 1336.09 643.812 1283.75 643.812Z" fill="#FEFEFE"/>
<path d="M1283.75 643.812C1231.41 643.812 1188.98 698.603 1188.98 705.386C1188.98 712.169 1231.41 766.96 1283.75 766.96C1336.09 766.96 1378.52 713.858 1378.52 705.386C1378.52 696.914 1336.09 643.812 1283.75 643.812Z" stroke="#373435" stroke-width="1.42" stroke-linecap="round"/>
<path fill-rule="evenodd" clip-rule="evenodd" d="M1304.3 698.438C1320.96 698.438 1334.46 711.945 1334.46 728.604C1334.46 745.264 1320.96 758.771 1304.3 758.771C1287.64 758.771 1274.13 745.264 1274.13 728.604C1274.13 711.945 1287.64 698.438 1304.3 698.438Z" fill="#373435"/>
<path d="M1304.3 698.438C1320.96 698.438 1334.46 711.945 1334.46 728.604C1334.46 745.264 1320.96 758.771 1304.3 758.771C1287.64 758.771 1274.13 745.264 1274.13 728.604C1274.13 711.945 1287.64 698.438 1304.3 698.438Z" stroke="#373435" stroke-width="1.42" stroke-linecap="round"/>
<path fill-rule="evenodd" clip-rule="evenodd" d="M1002.06 975.513L1022.13 892.199L817.131 964.755C788.533 976.439 758.8 1001 772.232 1043.21L805.297 1120.65L830.025 1179.79L1000.98 1091.62L934.316 1013.13L1002.06 975.498V975.513Z" fill="#373435"/>
<path d="M1002.06 975.513L1022.13 892.199L817.131 964.755C788.533 976.439 758.8 1001 772.232 1043.21L805.297 1120.65L830.025 1179.79L1000.98 1091.62L934.316 1013.13L1002.06 975.498V975.513Z" stroke="#373435" stroke-width="1.42" stroke-linecap="round"/>
<path d="M956.474 1025.51L1013.51 1096.42L912.278 1148.73" stroke="#FEFEFE" stroke-width="1.42" stroke-linecap="round"/>
<path fill-rule="evenodd" clip-rule="evenodd" d="M832.147 1185.38L1013.88 1093.91C1032.78 1103.75 1034.62 1104.4 1054.13 1116.01C1084.09 1133.82 1089 1178.1 1040.97 1191.19C1032.14 1193.6 953.845 1183.09 953.845 1183.09C953.426 1183.27 887.789 1296.44 876.508 1320.84C858.026 1360.82 789.459 1337.8 813.366 1289.64C832.042 1252.02 839.707 1213.05 832.147 1185.36V1185.38Z" fill="#FEFEFE"/>
<path d="M832.147 1185.38L1013.88 1093.91C1032.78 1103.75 1034.62 1104.4 1054.13 1116.01C1084.09 1133.82 1089 1178.1 1040.97 1191.19C1032.14 1193.6 953.845 1183.09 953.845 1183.09C953.426 1183.27 887.789 1296.44 876.508 1320.84C858.026 1360.82 789.459 1337.8 813.366 1289.64C832.042 1252.02 839.707 1213.05 832.147 1185.36V1185.38Z" stroke="#373435" stroke-width="1.42" stroke-linecap="round"/>
<path d="M981.516 1489.27L1038.44 1406.45" stroke="#373435" stroke-width="1.42" stroke-linecap="round"/>
<path d="M725.316 1222.48V1031.08" stroke="#373435" stroke-width="1.42" stroke-linecap="round"/>
<path fill-rule="evenodd" clip-rule="evenodd" d="M1348.57 1344.3L1457.36 1345.24L1218.13 1117.22L1220.56 1435.99L1300.16 1360.13L1373.5 1520.32L1411.44 1480.7L1348.57 1344.3Z" fill="#FEFEFE"/>
<path d="M1348.57 1344.3L1457.36 1345.24L1218.13 1117.22L1220.56 1435.99L1300.16 1360.13L1373.5 1520.32L1411.44 1480.7L1348.57 1344.3Z" stroke="#373435" stroke-width="1.42" stroke-linecap="round"/>
</g>
</svg>
