<svg width="40" height="37" viewBox="0 0 40 37" fill="none" xmlns="http://www.w3.org/2000/svg">
<path d="M10.9638 9.70443C5.82618 15.465 2.2584 26.7883 1.11671 31.73C0.734316 33.3808 1.33683 34.6557 2.26559 34.8855C3.97812 35.309 5.09042 34.5306 5.82618 33.0007C6.54935 31.4969 6.68245 29.6121 9.25125 27.4943C11.82 25.3765 24.2359 28.3414 32.3705 22.4115C40.505 16.4815 39.2206 6.31588 32.3705 2.50377C25.5203 -1.30835 17.3858 2.50377 10.9638 9.70443Z" fill="#FF6B6B"/>
<path d="M11.9638 10.7044C6.82618 16.465 3.2584 27.7883 2.11671 32.73C1.73432 34.3808 2.33683 35.6557 3.26559 35.8855C4.97812 36.309 6.09042 35.5306 6.82618 34.0007C7.54935 32.4969 7.68245 30.6121 10.2512 28.4943C12.82 26.3765 25.2359 29.3414 33.3705 23.4115C41.505 17.4815 40.2206 7.31588 33.3705 3.50377C26.5203 -0.308348 18.3858 3.50377 11.9638 10.7044Z" fill="white"/>
<path d="M31.5585 13.3772C30.1774 14.7049 26.1621 16.5209 24.7235 17.2124C22.5656 18.0422 19.976 18.0422 16.5232 18.0422C13.0705 18.0422 10.9125 23.436 16.0916 24.6807C21.2707 25.9254 30.7658 23.436 34.6501 18.872C38.5345 14.308 32.9396 12.0495 31.5585 13.3772Z" fill="#FF6B6B"/>
<path d="M10.9638 9.70443C5.82618 15.465 2.2584 26.7883 1.11671 31.73C0.734316 33.3808 1.33683 34.6557 2.26559 34.8855C3.97812 35.309 5.09042 34.5306 5.82618 33.0007C6.54935 31.4969 6.68245 29.6121 9.25125 27.4943C11.82 25.3765 24.2359 28.3414 32.3705 22.4115C40.505 16.4815 39.2206 6.31588 32.3705 2.50377C25.5203 -1.30835 17.3858 2.50377 10.9638 9.70443Z" stroke="black"/>
<path d="M11.9638 10.7044C6.82618 16.465 3.2584 27.7883 2.11671 32.73C1.73432 34.3808 2.33683 35.6557 3.26559 35.8855C4.97812 36.309 6.09042 35.5306 6.82618 34.0007C7.54935 32.4969 7.68245 30.6121 10.2512 28.4943C12.82 26.3765 25.2359 29.3414 33.3705 23.4115C41.505 17.4815 40.2206 7.31588 33.3705 3.50377C26.5203 -0.308348 18.3858 3.50377 11.9638 10.7044Z" stroke="black"/>
<path d="M31.5585 13.3772C30.1774 14.7049 26.1621 16.5209 24.7235 17.2124C22.5656 18.0422 19.976 18.0422 16.5232 18.0422C13.0705 18.0422 10.9125 23.436 16.0916 24.6807C21.2707 25.9254 30.7658 23.436 34.6501 18.872C38.5345 14.308 32.9396 12.0495 31.5585 13.3772Z" stroke="black"/>
</svg>
