<svg width="192" height="42" viewBox="0 0 192 42" fill="none" xmlns="http://www.w3.org/2000/svg">
<path d="M9.96378 14.8397C4.82618 20.6002 1.2584 31.9236 0.116708 36.8652C-0.265684 38.5161 0.336833 39.791 1.26559 40.0207C2.97812 40.4443 4.09042 39.6659 4.82618 38.1359C5.54935 36.6322 5.68245 34.7474 8.25125 32.6295C10.82 30.5117 23.2359 33.4767 31.3705 27.5467C39.505 21.6168 38.2206 11.4511 31.3705 7.63902C24.5203 3.82691 16.3858 7.63902 9.96378 14.8397Z" fill="#FF6B6B"/>
<path d="M47.7142 13.2954C48.1417 13.2954 48.5158 13.4558 48.8365 13.7764C49.1749 14.0792 49.3442 14.4622 49.3442 14.9254V30.37C49.3442 30.8332 49.1749 31.2251 48.8365 31.5457C48.498 31.8486 48.1061 32 47.6608 32C47.162 32 46.7612 31.8486 46.4583 31.5457C46.1555 31.2251 46.0041 30.8332 46.0041 30.37V14.9254C46.0041 14.4622 46.1644 14.0792 46.485 13.7764C46.8057 13.4558 47.2154 13.2954 47.7142 13.2954ZM59.5515 13.2954C60.0503 13.2954 60.4511 13.4558 60.754 13.7764C61.0568 14.0792 61.2082 14.4622 61.2082 14.9254V30.37C61.2082 30.8332 61.0479 31.2251 60.7272 31.5457C60.4244 31.8486 60.0147 32 59.4981 32C59.0705 32 58.6875 31.8486 58.3491 31.5457C58.0284 31.2251 57.8681 30.8332 57.8681 30.37V14.9254C57.8681 14.4622 58.0373 14.0792 58.3758 13.7764C58.7143 13.4558 59.1062 13.2954 59.5515 13.2954ZM47.634 21.0712H59.5515V24.1441H47.634V21.0712ZM75.0429 17.4372C75.5061 17.4372 75.8891 17.5886 76.1919 17.8914C76.4947 18.1942 76.6462 18.5862 76.6462 19.0671V30.37C76.6462 30.8332 76.4947 31.2251 76.1919 31.5457C75.8891 31.8486 75.5061 32 75.0429 32C74.5797 32 74.1967 31.8486 73.8939 31.5457C73.5911 31.2251 73.4397 30.8332 73.4397 30.37V29.0607L74.0275 29.3012C74.0275 29.5328 73.9028 29.8178 73.6534 30.1563C73.404 30.4769 73.0656 30.7976 72.638 31.1182C72.2105 31.4389 71.7028 31.715 71.1149 31.9466C70.5449 32.1603 69.9214 32.2672 69.2445 32.2672C68.0153 32.2672 66.902 31.9555 65.9044 31.332C64.9068 30.6907 64.1141 29.8178 63.5262 28.7133C62.9562 27.5911 62.6712 26.3085 62.6712 24.8655C62.6712 23.4048 62.9562 22.1222 63.5262 21.0177C64.1141 19.8955 64.8979 19.0226 65.8777 18.3991C66.8574 17.7578 67.9441 17.4372 69.1376 17.4372C69.9036 17.4372 70.6073 17.5529 71.2486 17.7845C71.8899 18.0161 72.4421 18.31 72.9052 18.6663C73.3862 19.0226 73.7514 19.3878 74.0008 19.7619C74.268 20.1181 74.4016 20.421 74.4016 20.6704L73.4397 21.0177V19.0671C73.4397 18.604 73.5911 18.221 73.8939 17.9181C74.1967 17.5975 74.5797 17.4372 75.0429 17.4372ZM69.6453 29.3279C70.4291 29.3279 71.1149 29.132 71.7028 28.7401C72.2907 28.3482 72.7449 27.8137 73.0656 27.1368C73.404 26.4599 73.5733 25.7028 73.5733 24.8655C73.5733 24.0105 73.404 23.2445 73.0656 22.5676C72.7449 21.8906 72.2907 21.3562 71.7028 20.9643C71.1149 20.5724 70.4291 20.3764 69.6453 20.3764C68.8793 20.3764 68.2024 20.5724 67.6145 20.9643C67.0267 21.3562 66.5635 21.8906 66.225 22.5676C65.9044 23.2445 65.7441 24.0105 65.7441 24.8655C65.7441 25.7028 65.9044 26.4599 66.225 27.1368C66.5635 27.8137 67.0267 28.3482 67.6145 28.7401C68.2024 29.132 68.8793 29.3279 69.6453 29.3279ZM85.9164 17.4372C87.1634 17.4372 88.2767 17.7578 89.2565 18.3991C90.2541 19.0226 91.0379 19.8866 91.6079 20.991C92.1958 22.0955 92.4897 23.3781 92.4897 24.8388C92.4897 26.2996 92.1958 27.5911 91.6079 28.7133C91.0379 29.8178 90.263 30.6907 89.2832 31.332C88.3213 31.9555 87.2346 32.2672 86.0233 32.2672C85.3107 32.2672 84.6427 32.1514 84.0192 31.9198C83.3957 31.6883 82.8435 31.3943 82.3625 31.0381C81.8994 30.6818 81.5342 30.3255 81.267 29.9692C81.0176 29.5951 80.8929 29.2834 80.8929 29.034L81.7212 28.6866V35.7142C81.7212 36.1774 81.5698 36.5604 81.267 36.8632C80.9641 37.1838 80.5811 37.3442 80.118 37.3442C79.6548 37.3442 79.2718 37.1927 78.969 36.8899C78.6661 36.5871 78.5147 36.1952 78.5147 35.7142V19.3343C78.5147 18.8712 78.6661 18.4882 78.969 18.1853C79.2718 17.8647 79.6548 17.7044 80.118 17.7044C80.5811 17.7044 80.9641 17.8647 81.267 18.1853C81.5698 18.4882 81.7212 18.8712 81.7212 19.3343V20.6437L81.267 20.4032C81.267 20.1716 81.3917 19.8955 81.6411 19.5748C81.8905 19.2364 82.2289 18.9068 82.6565 18.5862C83.084 18.2477 83.5739 17.9716 84.1261 17.7578C84.6961 17.544 85.2929 17.4372 85.9164 17.4372ZM85.5156 20.3764C84.7318 20.3764 84.0459 20.5724 83.4581 20.9643C82.8702 21.3562 82.4071 21.8906 82.0686 22.5676C81.7479 23.2267 81.5876 23.9838 81.5876 24.8388C81.5876 25.6761 81.7479 26.4421 82.0686 27.1368C82.4071 27.8137 82.8702 28.3482 83.4581 28.7401C84.0459 29.132 84.7318 29.3279 85.5156 29.3279C86.2994 29.3279 86.9763 29.132 87.5464 28.7401C88.1342 28.3482 88.5885 27.8137 88.9091 27.1368C89.2476 26.4421 89.4168 25.6761 89.4168 24.8388C89.4168 23.9838 89.2476 23.2267 88.9091 22.5676C88.5885 21.8906 88.1342 21.3562 87.5464 20.9643C86.9763 20.5724 86.2994 20.3764 85.5156 20.3764ZM101.092 17.4372C102.339 17.4372 103.452 17.7578 104.432 18.3991C105.43 19.0226 106.213 19.8866 106.783 20.991C107.371 22.0955 107.665 23.3781 107.665 24.8388C107.665 26.2996 107.371 27.5911 106.783 28.7133C106.213 29.8178 105.439 30.6907 104.459 31.332C103.497 31.9555 102.41 32.2672 101.199 32.2672C100.486 32.2672 99.8182 32.1514 99.1948 31.9198C98.5713 31.6883 98.019 31.3943 97.5381 31.0381C97.0749 30.6818 96.7097 30.3255 96.4425 29.9692C96.1931 29.5951 96.0684 29.2834 96.0684 29.034L96.8968 28.6866V35.7142C96.8968 36.1774 96.7454 36.5604 96.4425 36.8632C96.1397 37.1838 95.7567 37.3442 95.2935 37.3442C94.8304 37.3442 94.4474 37.1927 94.1445 36.8899C93.8417 36.5871 93.6903 36.1952 93.6903 35.7142V19.3343C93.6903 18.8712 93.8417 18.4882 94.1445 18.1853C94.4474 17.8647 94.8304 17.7044 95.2935 17.7044C95.7567 17.7044 96.1397 17.8647 96.4425 18.1853C96.7454 18.4882 96.8968 18.8712 96.8968 19.3343V20.6437L96.4425 20.4032C96.4425 20.1716 96.5672 19.8955 96.8166 19.5748C97.066 19.2364 97.4045 18.9068 97.832 18.5862C98.2595 18.2477 98.7494 17.9716 99.3016 17.7578C99.8717 17.544 100.468 17.4372 101.092 17.4372ZM100.691 20.3764C99.9073 20.3764 99.2215 20.5724 98.6336 20.9643C98.0458 21.3562 97.5826 21.8906 97.2441 22.5676C96.9235 23.2267 96.7632 23.9838 96.7632 24.8388C96.7632 25.6761 96.9235 26.4421 97.2441 27.1368C97.5826 27.8137 98.0458 28.3482 98.6336 28.7401C99.2215 29.132 99.9073 29.3279 100.691 29.3279C101.475 29.3279 102.152 29.132 102.722 28.7401C103.31 28.3482 103.764 27.8137 104.085 27.1368C104.423 26.4421 104.592 25.6761 104.592 24.8388C104.592 23.9838 104.423 23.2267 104.085 22.5676C103.764 21.8906 103.31 21.3562 102.722 20.9643C102.152 20.5724 101.475 20.3764 100.691 20.3764ZM119.474 17.7044C119.937 17.7044 120.32 17.8647 120.623 18.1853C120.926 18.4882 121.077 18.8712 121.077 19.3343V30.6907C121.077 32.3296 120.765 33.63 120.142 34.5919C119.536 35.5717 118.717 36.2753 117.684 36.7029C116.65 37.1304 115.493 37.3442 114.21 37.3442C113.64 37.3442 113.034 37.2996 112.393 37.2106C111.752 37.1215 111.226 36.9879 110.816 36.8097C110.282 36.5782 109.908 36.2842 109.694 35.928C109.498 35.5895 109.463 35.2243 109.587 34.8324C109.748 34.3158 110.006 33.9595 110.362 33.7636C110.718 33.5854 111.093 33.5676 111.484 33.7101C111.769 33.7992 112.144 33.9328 112.607 34.1109C113.07 34.3069 113.604 34.4049 114.21 34.4049C115.029 34.4049 115.706 34.2891 116.241 34.0575C116.793 33.8437 117.203 33.4696 117.47 32.9352C117.755 32.4186 117.897 31.7061 117.897 30.7976V29.0073L118.459 29.6486C118.156 30.2364 117.773 30.7263 117.31 31.1182C116.864 31.4923 116.33 31.7773 115.706 31.9733C115.083 32.1692 114.37 32.2672 113.569 32.2672C112.625 32.2672 111.796 32.0534 111.084 31.6259C110.389 31.1806 109.846 30.5749 109.454 29.8089C109.062 29.0251 108.866 28.1344 108.866 27.1368V19.3343C108.866 18.8712 109.017 18.4882 109.32 18.1853C109.623 17.8647 110.006 17.7044 110.469 17.7044C110.932 17.7044 111.315 17.8647 111.618 18.1853C111.921 18.4882 112.072 18.8712 112.072 19.3343V26.1749C112.072 27.3328 112.322 28.1522 112.82 28.6332C113.337 29.0963 114.05 29.3279 114.958 29.3279C115.582 29.3279 116.107 29.2121 116.535 28.9805C116.962 28.7312 117.292 28.3749 117.523 27.9117C117.755 27.4307 117.871 26.8518 117.871 26.1749V19.3343C117.871 18.8712 118.022 18.4882 118.325 18.1853C118.628 17.8647 119.011 17.7044 119.474 17.7044ZM136.821 13.2954C137.747 13.2954 138.611 13.5626 139.413 14.0971C140.232 14.6315 140.891 15.3529 141.39 16.2614C141.889 17.1699 142.138 18.1853 142.138 19.3076C142.138 20.4121 141.889 21.4186 141.39 22.3271C140.891 23.2356 140.232 23.9659 139.413 24.5182C138.611 25.0526 137.747 25.3198 136.821 25.3198H131.904L132.171 24.8388V30.37C132.171 30.8332 132.029 31.2251 131.744 31.5457C131.459 31.8486 131.085 32 130.622 32C130.176 32 129.811 31.8486 129.526 31.5457C129.241 31.2251 129.098 30.8332 129.098 30.37V14.9254C129.098 14.4622 129.25 14.0792 129.553 13.7764C129.873 13.4558 130.265 13.2954 130.728 13.2954H136.821ZM136.821 22.2736C137.159 22.2736 137.489 22.1311 137.809 21.8461C138.13 21.5611 138.397 21.1959 138.611 20.7505C138.825 20.2874 138.932 19.8064 138.932 19.3076C138.932 18.791 138.825 18.31 138.611 17.8647C138.397 17.4193 138.13 17.0631 137.809 16.7959C137.489 16.5108 137.159 16.3683 136.821 16.3683H131.851L132.171 15.8873V22.7012L131.877 22.2736H136.821ZM156.936 24.8655C156.936 26.3263 156.606 27.6178 155.947 28.7401C155.306 29.8445 154.433 30.7085 153.328 31.332C152.242 31.9555 151.021 32.2672 149.667 32.2672C148.314 32.2672 147.084 31.9555 145.98 31.332C144.893 30.7085 144.02 29.8445 143.361 28.7401C142.72 27.6178 142.399 26.3263 142.399 24.8655C142.399 23.4048 142.72 22.1222 143.361 21.0177C144.02 19.8955 144.893 19.0226 145.98 18.3991C147.084 17.7578 148.314 17.4372 149.667 17.4372C151.021 17.4372 152.242 17.7578 153.328 18.3991C154.433 19.0226 155.306 19.8955 155.947 21.0177C156.606 22.1222 156.936 23.4048 156.936 24.8655ZM153.729 24.8655C153.729 23.957 153.542 23.1732 153.168 22.5141C152.812 21.8372 152.322 21.3117 151.698 20.9376C151.093 20.5635 150.416 20.3764 149.667 20.3764C148.919 20.3764 148.233 20.5635 147.61 20.9376C147.004 21.3117 146.514 21.8372 146.14 22.5141C145.784 23.1732 145.606 23.957 145.606 24.8655C145.606 25.7562 145.784 26.54 146.14 27.217C146.514 27.8761 147.004 28.3927 147.61 28.7668C148.233 29.1409 148.919 29.3279 149.667 29.3279C150.416 29.3279 151.093 29.1409 151.698 28.7668C152.322 28.3927 152.812 27.8761 153.168 27.217C153.542 26.54 153.729 25.7562 153.729 24.8655ZM169.842 12.2266C170.305 12.2266 170.688 12.378 170.991 12.6809C171.294 12.9837 171.446 13.3756 171.446 13.8566V30.37C171.446 30.8332 171.294 31.2251 170.991 31.5457C170.688 31.8486 170.305 32 169.842 32C169.379 32 168.996 31.8486 168.693 31.5457C168.39 31.2251 168.239 30.8332 168.239 30.37V29.0607L168.827 29.3012C168.827 29.5328 168.702 29.8178 168.453 30.1563C168.203 30.4769 167.865 30.7976 167.437 31.1182C167.01 31.4389 166.502 31.715 165.914 31.9466C165.344 32.1603 164.721 32.2672 164.044 32.2672C162.815 32.2672 161.701 31.9555 160.704 31.332C159.706 30.6907 158.913 29.8178 158.326 28.7133C157.756 27.5911 157.471 26.3085 157.471 24.8655C157.471 23.4048 157.756 22.1222 158.326 21.0177C158.913 19.8955 159.697 19.0226 160.677 18.3991C161.657 17.7578 162.743 17.4372 163.937 17.4372C164.703 17.4372 165.407 17.5529 166.048 17.7845C166.689 18.0161 167.241 18.31 167.705 18.6663C168.186 19.0226 168.551 19.3878 168.8 19.7619C169.067 20.1181 169.201 20.421 169.201 20.6704L168.239 21.0177V13.8566C168.239 13.3934 168.39 13.0104 168.693 12.7076C168.996 12.3869 169.379 12.2266 169.842 12.2266ZM164.445 29.3279C165.229 29.3279 165.914 29.132 166.502 28.7401C167.09 28.3482 167.544 27.8137 167.865 27.1368C168.203 26.4599 168.373 25.7028 168.373 24.8655C168.373 24.0105 168.203 23.2445 167.865 22.5676C167.544 21.8906 167.09 21.3562 166.502 20.9643C165.914 20.5724 165.229 20.3764 164.445 20.3764C163.679 20.3764 163.002 20.5724 162.414 20.9643C161.826 21.3562 161.363 21.8906 161.024 22.5676C160.704 23.2445 160.543 24.0105 160.543 24.8655C160.543 25.7028 160.704 26.4599 161.024 27.1368C161.363 27.8137 161.826 28.3482 162.414 28.7401C163.002 29.132 163.679 29.3279 164.445 29.3279ZM172.486 29.7822C172.308 29.5328 172.227 29.2121 172.245 28.8202C172.263 28.4283 172.495 28.0899 172.94 27.8048C173.225 27.6267 173.528 27.5554 173.849 27.5911C174.169 27.6089 174.481 27.7692 174.784 28.072C175.3 28.5886 175.844 28.9895 176.414 29.2745C176.984 29.5595 177.696 29.702 178.551 29.702C178.819 29.6842 179.113 29.6486 179.433 29.5951C179.754 29.5239 180.03 29.3814 180.262 29.1676C180.511 28.936 180.636 28.5886 180.636 28.1255C180.636 27.7336 180.502 27.4218 180.235 27.1903C179.968 26.9587 179.611 26.7627 179.166 26.6024C178.738 26.4421 178.257 26.2907 177.723 26.1481C177.171 25.9878 176.601 25.8097 176.013 25.6137C175.443 25.4178 174.917 25.1684 174.436 24.8655C173.955 24.5449 173.564 24.1263 173.261 23.6097C172.958 23.0931 172.806 22.4429 172.806 21.659C172.806 20.7684 173.056 20.0113 173.555 19.3878C174.053 18.7643 174.695 18.2833 175.479 17.9449C176.28 17.6064 177.117 17.4372 177.99 17.4372C178.542 17.4372 179.121 17.5084 179.727 17.6509C180.333 17.7756 180.912 17.9894 181.464 18.2922C182.016 18.5772 182.479 18.9602 182.853 19.4412C183.049 19.7084 183.165 20.0291 183.201 20.4032C183.236 20.7773 183.067 21.1157 182.693 21.4186C182.426 21.6323 182.114 21.7303 181.758 21.7125C181.402 21.6769 181.108 21.5522 180.876 21.3384C180.573 20.9465 180.164 20.6347 179.647 20.4032C179.148 20.1716 178.569 20.0558 177.91 20.0558C177.643 20.0558 177.349 20.0914 177.028 20.1627C176.725 20.2161 176.458 20.3497 176.227 20.5635C175.995 20.7594 175.879 21.0801 175.879 21.5254C175.879 21.9352 176.013 22.2647 176.28 22.5141C176.547 22.7457 176.904 22.9416 177.349 23.102C177.812 23.2445 178.302 23.387 178.819 23.5295C179.353 23.672 179.896 23.8412 180.449 24.0372C181.001 24.2332 181.509 24.4915 181.972 24.8121C182.435 25.1328 182.809 25.5514 183.094 26.068C183.379 26.5668 183.521 27.2081 183.521 27.9919C183.521 28.9004 183.254 29.6753 182.72 30.3166C182.185 30.9579 181.517 31.4478 180.716 31.7862C179.914 32.1069 179.095 32.2672 178.257 32.2672C177.206 32.2672 176.155 32.0891 175.104 31.7328C174.053 31.3587 173.181 30.7085 172.486 29.7822Z" fill="white"/>
<path d="M10.9638 15.8397C5.82618 21.6002 2.2584 32.9236 1.11671 37.8652C0.734316 39.5161 1.33683 40.791 2.26559 41.0207C3.97812 41.4443 5.09042 40.6659 5.82618 39.1359C6.54935 37.6322 6.68245 35.7474 9.25125 33.6295C11.82 31.5117 24.2359 34.4767 32.3705 28.5467C40.505 22.6168 39.2206 12.4511 32.3705 8.63902C25.5203 4.82691 17.3858 8.63902 10.9638 15.8397Z" fill="white" stroke="black"/>
<path d="M30.5585 18.5125C29.1774 19.8402 25.1621 21.6561 23.7235 22.3476C21.5656 23.1774 18.976 23.1774 15.5232 23.1774C12.0705 23.1774 9.9125 28.5712 15.0916 29.8159C20.2707 31.0606 29.7658 28.5712 33.6501 24.0072C37.5345 19.4433 31.9396 17.1848 30.5585 18.5125Z" fill="#FF6B6B" stroke="black"/>
</svg>
