<svg width="184" height="36" viewBox="0 0 184 36" fill="none" xmlns="http://www.w3.org/2000/svg">
<path d="M9.96378 8.83921C4.82618 14.5997 1.2584 25.9231 0.116708 30.8647C-0.265684 32.5156 0.336833 33.7905 1.26559 34.0202C2.97812 34.4438 4.09042 33.6654 4.82618 32.1354C5.54935 30.6317 5.68245 28.7469 8.25125 26.629C10.82 24.5112 23.2359 27.4762 31.3705 21.5462C39.505 15.6163 38.2206 5.45061 31.3705 1.63853C24.5203 -2.17358 16.3858 1.63853 9.96378 8.83921Z" fill="#00C75D"/>
<path d="M47.714 7.29536C48.1415 7.29536 48.5156 7.45576 48.8363 7.77636C49.1747 8.07916 49.344 8.46216 49.344 8.92536V24.37C49.344 24.8332 49.1747 25.2251 48.8363 25.5457C48.4978 25.8486 48.1059 26 47.6606 26C47.1618 26 46.761 25.8486 46.4581 25.5457C46.1553 25.2251 46.0039 24.8332 46.0039 24.37V8.92536C46.0039 8.46216 46.1642 8.07916 46.4848 7.77636C46.8055 7.45576 47.2152 7.29536 47.714 7.29536ZM59.5513 7.29536C60.0501 7.29536 60.4509 7.45576 60.7538 7.77636C61.0566 8.07916 61.208 8.46216 61.208 8.92536V24.37C61.208 24.8332 61.0477 25.2251 60.727 25.5457C60.4242 25.8486 60.0145 26 59.4979 26C59.0703 26 58.6873 25.8486 58.3489 25.5457C58.0282 25.2251 57.8679 24.8332 57.8679 24.37V8.92536C57.8679 8.46216 58.0371 8.07916 58.3756 7.77636C58.7141 7.45576 59.106 7.29536 59.5513 7.29536ZM47.6338 15.0712H59.5513V18.1441H47.6338V15.0712ZM75.0427 11.4372C75.5059 11.4372 75.8889 11.5886 76.1917 11.8914C76.4945 12.1942 76.646 12.5862 76.646 13.0671V24.37C76.646 24.8332 76.4945 25.2251 76.1917 25.5457C75.8889 25.8486 75.5059 26 75.0427 26C74.5795 26 74.1965 25.8486 73.8937 25.5457C73.5909 25.2251 73.4395 24.8332 73.4395 24.37V23.0607L74.0273 23.3012C74.0273 23.5328 73.9026 23.8178 73.6532 24.1563C73.4038 24.4769 73.0654 24.7976 72.6378 25.1182C72.2103 25.4389 71.7026 25.715 71.1147 25.9466C70.5447 26.1603 69.9212 26.2672 69.2443 26.2672C68.0151 26.2672 66.9018 25.9555 65.9042 25.332C64.9066 24.6907 64.1139 23.8178 63.526 22.7133C62.956 21.5911 62.671 20.3085 62.671 18.8655C62.671 17.4048 62.956 16.1222 63.526 15.0177C64.1139 13.8955 64.8977 13.0226 65.8775 12.3991C66.8572 11.7578 67.9439 11.4372 69.1374 11.4372C69.9034 11.4372 70.6071 11.5529 71.2484 11.7845C71.8897 12.0161 72.4419 12.31 72.905 12.6663C73.386 13.0226 73.7512 13.3878 74.0006 13.7619C74.2678 14.1181 74.4014 14.421 74.4014 14.6704L73.4395 15.0177V13.0671C73.4395 12.604 73.5909 12.221 73.8937 11.9181C74.1965 11.5975 74.5795 11.4372 75.0427 11.4372ZM69.6451 23.3279C70.4289 23.3279 71.1147 23.132 71.7026 22.7401C72.2905 22.3482 72.7447 21.8137 73.0654 21.1368C73.4038 20.4599 73.5731 19.7028 73.5731 18.8655C73.5731 18.0105 73.4038 17.2445 73.0654 16.5676C72.7447 15.8906 72.2905 15.3562 71.7026 14.9643C71.1147 14.5724 70.4289 14.3764 69.6451 14.3764C68.8791 14.3764 68.2022 14.5724 67.6143 14.9643C67.0265 15.3562 66.5633 15.8906 66.2248 16.5676C65.9042 17.2445 65.7439 18.0105 65.7439 18.8655C65.7439 19.7028 65.9042 20.4599 66.2248 21.1368C66.5633 21.8137 67.0265 22.3482 67.6143 22.7401C68.2022 23.132 68.8791 23.3279 69.6451 23.3279ZM85.9162 11.4372C87.1632 11.4372 88.2765 11.7578 89.2563 12.3991C90.2539 13.0226 91.0377 13.8866 91.6077 14.991C92.1956 16.0955 92.4895 17.3781 92.4895 18.8388C92.4895 20.2996 92.1956 21.5911 91.6077 22.7133C91.0377 23.8178 90.2628 24.6907 89.283 25.332C88.3211 25.9555 87.2344 26.2672 86.0231 26.2672C85.3105 26.2672 84.6425 26.1514 84.019 25.9198C83.3955 25.6883 82.8433 25.3943 82.3623 25.0381C81.8992 24.6818 81.534 24.3255 81.2668 23.9692C81.0174 23.5951 80.8927 23.2834 80.8927 23.034L81.721 22.6866V29.7142C81.721 30.1774 81.5696 30.5604 81.2668 30.8632C80.9639 31.1838 80.5809 31.3442 80.1178 31.3442C79.6546 31.3442 79.2716 31.1927 78.9688 30.8899C78.6659 30.5871 78.5145 30.1952 78.5145 29.7142V13.3343C78.5145 12.8712 78.6659 12.4882 78.9688 12.1853C79.2716 11.8647 79.6546 11.7044 80.1178 11.7044C80.5809 11.7044 80.9639 11.8647 81.2668 12.1853C81.5696 12.4882 81.721 12.8712 81.721 13.3343V14.6437L81.2668 14.4032C81.2668 14.1716 81.3915 13.8955 81.6409 13.5748C81.8903 13.2364 82.2287 12.9068 82.6563 12.5862C83.0838 12.2477 83.5737 11.9716 84.1259 11.7578C84.6959 11.544 85.2927 11.4372 85.9162 11.4372ZM85.5154 14.3764C84.7316 14.3764 84.0457 14.5724 83.4579 14.9643C82.87 15.3562 82.4069 15.8906 82.0684 16.5676C81.7477 17.2267 81.5874 17.9838 81.5874 18.8388C81.5874 19.6761 81.7477 20.4421 82.0684 21.1368C82.4069 21.8137 82.87 22.3482 83.4579 22.7401C84.0457 23.132 84.7316 23.3279 85.5154 23.3279C86.2992 23.3279 86.9761 23.132 87.5462 22.7401C88.134 22.3482 88.5883 21.8137 88.9089 21.1368C89.2474 20.4421 89.4166 19.6761 89.4166 18.8388C89.4166 17.9838 89.2474 17.2267 88.9089 16.5676C88.5883 15.8906 88.134 15.3562 87.5462 14.9643C86.9761 14.5724 86.2992 14.3764 85.5154 14.3764ZM101.092 11.4372C102.339 11.4372 103.452 11.7578 104.432 12.3991C105.43 13.0226 106.213 13.8866 106.783 14.991C107.371 16.0955 107.665 17.3781 107.665 18.8388C107.665 20.2996 107.371 21.5911 106.783 22.7133C106.213 23.8178 105.439 24.6907 104.459 25.332C103.497 25.9555 102.41 26.2672 101.199 26.2672C100.486 26.2672 99.818 26.1514 99.1946 25.9198C98.5711 25.6883 98.0188 25.3943 97.5379 25.0381C97.0747 24.6818 96.7095 24.3255 96.4423 23.9692C96.1929 23.5951 96.0682 23.2834 96.0682 23.034L96.8966 22.6866V29.7142C96.8966 30.1774 96.7452 30.5604 96.4423 30.8632C96.1395 31.1838 95.7565 31.3442 95.2933 31.3442C94.8302 31.3442 94.4472 31.1927 94.1443 30.8899C93.8415 30.5871 93.6901 30.1952 93.6901 29.7142V13.3343C93.6901 12.8712 93.8415 12.4882 94.1443 12.1853C94.4472 11.8647 94.8302 11.7044 95.2933 11.7044C95.7565 11.7044 96.1395 11.8647 96.4423 12.1853C96.7452 12.4882 96.8966 12.8712 96.8966 13.3343V14.6437L96.4423 14.4032C96.4423 14.1716 96.567 13.8955 96.8164 13.5748C97.0658 13.2364 97.4043 12.9068 97.8318 12.5862C98.2593 12.2477 98.7492 11.9716 99.3014 11.7578C99.8715 11.544 100.468 11.4372 101.092 11.4372ZM100.691 14.3764C99.9071 14.3764 99.2213 14.5724 98.6334 14.9643C98.0456 15.3562 97.5824 15.8906 97.2439 16.5676C96.9233 17.2267 96.763 17.9838 96.763 18.8388C96.763 19.6761 96.9233 20.4421 97.2439 21.1368C97.5824 21.8137 98.0456 22.3482 98.6334 22.7401C99.2213 23.132 99.9071 23.3279 100.691 23.3279C101.475 23.3279 102.152 23.132 102.722 22.7401C103.31 22.3482 103.764 21.8137 104.085 21.1368C104.423 20.4421 104.592 19.6761 104.592 18.8388C104.592 17.9838 104.423 17.2267 104.085 16.5676C103.764 15.8906 103.31 15.3562 102.722 14.9643C102.152 14.5724 101.475 14.3764 100.691 14.3764ZM119.474 11.7044C119.937 11.7044 120.32 11.8647 120.623 12.1853C120.926 12.4882 121.077 12.8712 121.077 13.3343V24.6907C121.077 26.3296 120.765 27.63 120.142 28.5919C119.536 29.5717 118.717 30.2753 117.684 30.7029C116.65 31.1304 115.493 31.3442 114.21 31.3442C113.64 31.3442 113.034 31.2996 112.393 31.2106C111.752 31.1215 111.226 30.9879 110.816 30.8097C110.282 30.5782 109.908 30.2842 109.694 29.928C109.498 29.5895 109.463 29.2243 109.587 28.8324C109.748 28.3158 110.006 27.9595 110.362 27.7636C110.718 27.5854 111.093 27.5676 111.484 27.7101C111.769 27.7992 112.144 27.9328 112.607 28.1109C113.07 28.3069 113.604 28.4049 114.21 28.4049C115.029 28.4049 115.706 28.2891 116.241 28.0575C116.793 27.8437 117.203 27.4696 117.47 26.9352C117.755 26.4186 117.897 25.7061 117.897 24.7976V23.0073L118.459 23.6486C118.156 24.2364 117.773 24.7263 117.31 25.1182C116.864 25.4923 116.33 25.7773 115.706 25.9733C115.083 26.1692 114.37 26.2672 113.569 26.2672C112.625 26.2672 111.796 26.0534 111.084 25.6259C110.389 25.1806 109.846 24.5749 109.454 23.8089C109.062 23.0251 108.866 22.1344 108.866 21.1368V13.3343C108.866 12.8712 109.017 12.4882 109.32 12.1853C109.623 11.8647 110.006 11.7044 110.469 11.7044C110.932 11.7044 111.315 11.8647 111.618 12.1853C111.921 12.4882 112.072 12.8712 112.072 13.3343V20.1749C112.072 21.3328 112.322 22.1522 112.82 22.6332C113.337 23.0963 114.05 23.3279 114.958 23.3279C115.582 23.3279 116.107 23.2121 116.535 22.9805C116.962 22.7312 117.292 22.3749 117.523 21.9117C117.755 21.4307 117.871 20.8518 117.871 20.1749V13.3343C117.871 12.8712 118.022 12.4882 118.325 12.1853C118.628 11.8647 119.011 11.7044 119.474 11.7044ZM136.821 7.29536C137.747 7.29536 138.611 7.56256 139.413 8.09706C140.232 8.63146 140.891 9.35286 141.39 10.2614C141.889 11.1699 142.138 12.1853 142.138 13.3076C142.138 14.4121 141.889 15.4186 141.39 16.3271C140.891 17.2356 140.232 17.9659 139.413 18.5182C138.611 19.0526 137.747 19.3198 136.821 19.3198H131.904L132.171 18.8388V24.37C132.171 24.8332 132.029 25.2251 131.744 25.5457C131.459 25.8486 131.085 26 130.622 26C130.176 26 129.811 25.8486 129.526 25.5457C129.241 25.2251 129.098 24.8332 129.098 24.37V8.92536C129.098 8.46216 129.25 8.07916 129.553 7.77636C129.873 7.45576 130.265 7.29536 130.728 7.29536H136.821ZM136.821 16.2736C137.159 16.2736 137.489 16.1311 137.809 15.8461C138.13 15.5611 138.397 15.1959 138.611 14.7505C138.825 14.2874 138.932 13.8064 138.932 13.3076C138.932 12.791 138.825 12.31 138.611 11.8647C138.397 11.4193 138.13 11.0631 137.809 10.7959C137.489 10.5108 137.159 10.3683 136.821 10.3683H131.851L132.171 9.88726V16.7012L131.877 16.2736H136.821ZM156.936 18.8655C156.936 20.3263 156.606 21.6178 155.947 22.7401C155.306 23.8445 154.433 24.7085 153.328 25.332C152.242 25.9555 151.021 26.2672 149.667 26.2672C148.314 26.2672 147.084 25.9555 145.98 25.332C144.893 24.7085 144.02 23.8445 143.361 22.7401C142.72 21.6178 142.399 20.3263 142.399 18.8655C142.399 17.4048 142.72 16.1222 143.361 15.0177C144.02 13.8955 144.893 13.0226 145.98 12.3991C147.084 11.7578 148.314 11.4372 149.667 11.4372C151.021 11.4372 152.242 11.7578 153.328 12.3991C154.433 13.0226 155.306 13.8955 155.947 15.0177C156.606 16.1222 156.936 17.4048 156.936 18.8655ZM153.729 18.8655C153.729 17.957 153.542 17.1732 153.168 16.5141C152.812 15.8372 152.322 15.3117 151.698 14.9376C151.093 14.5635 150.416 14.3764 149.667 14.3764C148.919 14.3764 148.233 14.5635 147.61 14.9376C147.004 15.3117 146.514 15.8372 146.14 16.5141C145.784 17.1732 145.606 17.957 145.606 18.8655C145.606 19.7562 145.784 20.54 146.14 21.217C146.514 21.8761 147.004 22.3927 147.61 22.7668C148.233 23.1409 148.919 23.3279 149.667 23.3279C150.416 23.3279 151.093 23.1409 151.698 22.7668C152.322 22.3927 152.812 21.8761 153.168 21.217C153.542 20.54 153.729 19.7562 153.729 18.8655ZM169.842 6.22656C170.305 6.22656 170.688 6.37796 170.991 6.68086C171.294 6.98366 171.446 7.37556 171.446 7.85656V24.37C171.446 24.8332 171.294 25.2251 170.991 25.5457C170.688 25.8486 170.305 26 169.842 26C169.379 26 168.996 25.8486 168.693 25.5457C168.39 25.2251 168.239 24.8332 168.239 24.37V23.0607L168.827 23.3012C168.827 23.5328 168.702 23.8178 168.453 24.1563C168.203 24.4769 167.865 24.7976 167.437 25.1182C167.01 25.4389 166.502 25.715 165.914 25.9466C165.344 26.1603 164.721 26.2672 164.044 26.2672C162.815 26.2672 161.701 25.9555 160.704 25.332C159.706 24.6907 158.913 23.8178 158.326 22.7133C157.756 21.5911 157.471 20.3085 157.471 18.8655C157.471 17.4048 157.756 16.1222 158.326 15.0177C158.913 13.8955 159.697 13.0226 160.677 12.3991C161.657 11.7578 162.743 11.4372 163.937 11.4372C164.703 11.4372 165.407 11.5529 166.048 11.7845C166.689 12.0161 167.241 12.31 167.705 12.6663C168.186 13.0226 168.551 13.3878 168.8 13.7619C169.067 14.1181 169.201 14.421 169.201 14.6704L168.239 15.0177V7.85656C168.239 7.39336 168.39 7.01036 168.693 6.70756C168.996 6.38686 169.379 6.22656 169.842 6.22656ZM164.445 23.3279C165.229 23.3279 165.914 23.132 166.502 22.7401C167.09 22.3482 167.544 21.8137 167.865 21.1368C168.203 20.4599 168.373 19.7028 168.373 18.8655C168.373 18.0105 168.203 17.2445 167.865 16.5676C167.544 15.8906 167.09 15.3562 166.502 14.9643C165.914 14.5724 165.229 14.3764 164.445 14.3764C163.679 14.3764 163.002 14.5724 162.414 14.9643C161.826 15.3562 161.363 15.8906 161.024 16.5676C160.704 17.2445 160.543 18.0105 160.543 18.8655C160.543 19.7028 160.704 20.4599 161.024 21.1368C161.363 21.8137 161.826 22.3482 162.414 22.7401C163.002 23.132 163.679 23.3279 164.445 23.3279ZM172.486 23.7822C172.308 23.5328 172.227 23.2121 172.245 22.8202C172.263 22.4283 172.495 22.0899 172.94 21.8048C173.225 21.6267 173.528 21.5554 173.849 21.5911C174.169 21.6089 174.481 21.7692 174.784 22.072C175.3 22.5886 175.844 22.9895 176.414 23.2745C176.984 23.5595 177.696 23.702 178.551 23.702C178.819 23.6842 179.113 23.6486 179.433 23.5951C179.754 23.5239 180.03 23.3814 180.262 23.1676C180.511 22.936 180.636 22.5886 180.636 22.1255C180.636 21.7336 180.502 21.4218 180.235 21.1903C179.968 20.9587 179.611 20.7627 179.166 20.6024C178.738 20.4421 178.257 20.2907 177.723 20.1481C177.171 19.9878 176.601 19.8097 176.013 19.6137C175.443 19.4178 174.917 19.1684 174.436 18.8655C173.955 18.5449 173.564 18.1263 173.261 17.6097C172.958 17.0931 172.806 16.4429 172.806 15.659C172.806 14.7684 173.056 14.0113 173.555 13.3878C174.053 12.7643 174.695 12.2833 175.479 11.9449C176.28 11.6064 177.117 11.4372 177.99 11.4372C178.542 11.4372 179.121 11.5084 179.727 11.6509C180.333 11.7756 180.912 11.9894 181.464 12.2922C182.016 12.5772 182.479 12.9602 182.853 13.4412C183.049 13.7084 183.165 14.0291 183.201 14.4032C183.236 14.7773 183.067 15.1157 182.693 15.4186C182.426 15.6323 182.114 15.7303 181.758 15.7125C181.402 15.6769 181.108 15.5522 180.876 15.3384C180.573 14.9465 180.164 14.6347 179.647 14.4032C179.148 14.1716 178.569 14.0558 177.91 14.0558C177.643 14.0558 177.349 14.0914 177.028 14.1627C176.725 14.2161 176.458 14.3497 176.227 14.5635C175.995 14.7594 175.879 15.0801 175.879 15.5254C175.879 15.9352 176.013 16.2647 176.28 16.5141C176.547 16.7457 176.904 16.9416 177.349 17.102C177.812 17.2445 178.302 17.387 178.819 17.5295C179.353 17.672 179.896 17.8412 180.449 18.0372C181.001 18.2332 181.509 18.4915 181.972 18.8121C182.435 19.1328 182.809 19.5514 183.094 20.068C183.379 20.5668 183.521 21.2081 183.521 21.9919C183.521 22.9004 183.254 23.6753 182.72 24.3166C182.185 24.9579 181.517 25.4478 180.716 25.7862C179.914 26.1069 179.095 26.2672 178.257 26.2672C177.206 26.2672 176.155 26.0891 175.104 25.7328C174.053 25.3587 173.181 24.7085 172.486 23.7822Z" fill="black"/>
<path d="M10.9638 9.83921C5.82618 15.5997 2.2584 26.9231 1.11671 31.8647C0.734315 33.5156 1.33683 34.7905 2.26559 35.0202C3.97812 35.4438 5.09042 34.6654 5.82618 33.1354C6.54935 31.6317 6.68245 29.7469 9.25125 27.629C11.82 25.5112 24.2359 28.4762 32.3705 22.5462C40.505 16.6163 39.2206 6.45061 32.3705 2.63853C25.5203 -1.17358 17.3858 2.63853 10.9638 9.83921Z" fill="white" stroke="black"/>
<path d="M30.5585 12.512C29.1774 13.8397 25.1621 15.6556 23.7235 16.3471C21.5656 17.1769 18.976 17.1769 15.5232 17.1769C12.0705 17.1769 9.91249 22.5707 15.0916 23.8154C20.2707 25.0601 29.7658 22.5707 33.6501 18.0067C37.5345 13.4428 31.9396 11.1843 30.5585 12.512Z" fill="#00C75D" stroke="black"/>
</svg>
