<svg width="240" height="77" viewBox="0 0 240 77" fill="none" xmlns="http://www.w3.org/2000/svg">
<rect x="0.358209" y="4.65679" width="234.269" height="71.6418" fill="#02BC59" stroke="black" stroke-width="0.716418"/>
<g clip-path="url(#clip0_1233_2156)">
<rect x="3.58203" width="236.418" height="73.0746" fill="#FDF1E5"/>
<path d="M239.642 0.358398V24.9268L215.073 0.358398H239.642Z" fill="#1F1F1D" stroke="#1F1F1D" stroke-width="0.716418"/>
<path d="M214.567 25.4326L214.567 0.864256L239.136 25.4326L214.567 25.4326Z" fill="#02BC59" stroke="black" stroke-width="0.716418"/>
</g>
<rect x="3.94024" y="0.358209" width="235.701" height="72.3582" stroke="black" stroke-width="0.716418"/>
<path d="M49.3829 16.6891C47.434 17.1143 45.6908 18.3427 44.5781 19.9717C43.4524 21.5936 42.8478 23.488 42.5268 25.3944C42.211 27.3078 42.2367 29.2465 42.3332 31.1536C42.5384 34.9994 43.3302 38.7945 44.6803 42.4058C45.3628 44.2115 46.1733 45.9608 47.1381 47.6391C48.1158 49.3124 49.2607 50.883 50.5214 52.3535C51.8014 53.7975 53.1715 55.242 55.0111 56.1353C55.4742 56.3634 55.9824 56.5028 56.5098 56.5795C57.063 56.6365 57.5969 56.5478 58.0857 56.4014C59.0698 56.1043 59.9382 55.5974 60.7551 55.0456C61.8872 54.2733 62.9292 53.3799 63.9069 52.4486C64.325 52.0361 64.7431 51.6243 65.1483 51.2068C65.219 51.1371 65.2834 51.0604 65.3606 50.985C66.6213 49.6609 67.7984 48.2537 68.9304 46.8282C71.3168 43.7933 73.5102 40.6318 75.4913 37.3372C77.466 34.0433 79.3442 30.679 80.7529 27.0797C81.4733 25.2994 81.8656 23.2339 81.3768 21.2705C81.1388 20.2941 80.6564 19.3381 79.8459 18.6469C79.0419 17.9569 77.9291 17.6585 76.8935 17.7219C75.8451 17.7789 74.906 18.147 74.0055 18.5335C73.0985 18.9453 72.2302 19.4388 71.4454 20.0287C69.8567 21.1875 68.5059 22.6453 67.3796 24.216C65.1226 27.3902 63.5917 30.9635 62.3947 34.6002C61.2375 38.2306 60.1119 41.9756 60.2527 45.8841C60.2984 46.8535 60.4142 47.8165 60.7165 48.7612C60.8194 49.0773 60.9545 49.3948 61.1089 49.6919C60.2527 50.5225 59.3786 51.2891 58.5295 51.8841C57.9185 52.3028 56.8057 52.8154 56.8057 52.8154C56.8057 52.8154 56.6899 52.7907 56.6192 52.7464C56.2268 52.6133 55.6222 52.2009 55.0433 51.7136C54.4637 51.2315 53.8726 50.6486 53.3008 50.015C52.7335 49.3948 52.1295 48.6845 51.6406 48.0199C51.1196 47.3603 50.6501 46.6387 50.187 45.9165C49.2929 44.4396 48.476 42.888 47.7877 41.2654C46.4119 38.0285 45.53 34.5438 45.1827 30.9952C45.0605 30.1151 45.0225 29.2028 44.9704 28.3342C44.9383 27.4789 44.9646 26.6242 45.0412 25.7879C45.2148 24.1216 45.6394 22.5116 46.4177 21.2135C47.1895 19.9146 48.3158 18.9326 49.8203 18.4631C51.319 17.9696 52.8756 18.102 54.3936 18.8369C55.8994 19.5725 57.2489 20.8587 58.3945 22.2969C59.5587 23.7408 60.5814 25.3697 61.3855 27.0797L61.3925 27.1051C61.4369 27.1944 61.5527 27.2451 61.6492 27.2134C61.7585 27.1684 61.81 27.0544 61.7714 26.9536C61.1346 25.1283 60.2727 23.3929 59.2178 21.7704C58.1436 20.1738 56.8379 18.6602 55.1462 17.6274C54.3036 17.1079 53.3522 16.7335 52.3675 16.5751C51.9815 16.5086 51.5918 16.4775 51.202 16.4775C50.5909 16.4775 49.9798 16.5535 49.3829 16.6891M62.6719 46.9935C62.6391 46.6007 62.6269 46.1952 62.6391 45.7828C62.6719 44.1298 62.9999 42.4058 63.4695 40.6952C63.7075 39.8272 63.9776 38.9845 64.2928 38.1102C64.5945 37.2428 64.8653 36.3615 65.2126 35.5125L65.6944 34.2327L66.2353 32.9846C66.5698 32.142 67.0008 31.3563 67.3796 30.5517C68.2165 28.9868 69.1298 27.4922 70.159 26.1807C71.0473 25.0485 72.0481 23.9917 73.2072 23.1243C74.1039 22.4527 75.8631 20.9803 77.082 21.5619C77.9304 21.9668 77.8834 22.9621 77.6898 23.7325C77.6274 23.9796 77.5561 24.2153 77.4982 24.4219C76.8942 26.5716 75.8541 28.5616 74.7902 30.5206C73.9212 32.1229 72.995 33.7139 72.0179 35.2851C70.0561 38.408 67.9785 41.4871 65.7465 44.3952C64.801 45.6187 63.8297 46.8098 62.807 47.9242C62.7491 47.6518 62.6976 47.3293 62.6719 46.9935Z" fill="url(#paint0_linear_1233_2156)"/>
<path d="M87.4232 41.6416L87.4153 41.6581C86.2958 43.2465 84.8195 44.532 83.2682 45.6835C81.7084 46.8178 80.0581 47.844 78.3662 48.7592C76.6658 49.6672 74.908 50.4987 73.1568 51.1038C72.9419 51.1804 72.7263 51.247 72.5271 51.3057C72.3115 51.3658 72.137 51.3988 71.8966 51.4489C71.4486 51.5499 71.0005 51.6172 70.5531 51.676C69.6576 51.7934 68.7784 51.8106 67.9233 51.7439C67.0363 51.668 66.1897 51.4575 65.4681 51.1124C65.3939 51.1969 65.3275 51.2721 65.2532 51.348C64.8462 51.7855 64.4235 52.2144 64.0009 52.6427C65.1946 53.2643 66.5551 53.55 67.8739 53.5844C68.869 53.6094 69.8732 53.5164 70.8429 53.331C71.8139 53.1468 72.8006 52.9198 73.7208 52.5246C75.5541 51.7604 77.2877 50.8102 78.9719 49.7761C80.6553 48.7348 82.2724 47.5998 83.7905 46.3137C85.3007 45.0282 86.7263 43.5995 87.7722 41.868C87.8295 41.7756 87.8048 41.6581 87.7136 41.5902C87.6791 41.5651 87.6381 41.5526 87.597 41.5526C87.5313 41.5526 87.4648 41.5842 87.4232 41.6416" fill="url(#paint1_linear_1233_2156)"/>
<path d="M101.732 48.2555V26.9187H105.572V45.0153H114.908V48.2555H101.732Z" fill="black"/>
<path d="M120.283 26.9187L124.951 34.7324H125.117L129.805 26.9187H134.183L127.652 37.5871L134.287 48.2555H129.836L125.117 40.4938H124.951L120.231 48.2555H115.802L122.498 37.5871L115.884 26.9187H120.283Z" fill="black"/>
<path d="M143.215 48.2555H136.032V26.9187H143.36C145.464 26.9187 147.272 27.3458 148.783 28.2001C150.301 29.0475 151.467 30.2664 152.282 31.857C153.096 33.4475 153.503 35.3506 153.503 37.5662C153.503 39.7888 153.092 41.6988 152.271 43.2963C151.457 44.8938 150.281 46.1197 148.742 46.974C147.21 47.8283 145.368 48.2555 143.215 48.2555ZM139.872 44.9112H143.029C144.505 44.9112 145.737 44.6403 146.724 44.0985C147.71 43.5498 148.452 42.7337 148.949 41.6502C149.446 40.5598 149.694 39.1984 149.694 37.5662C149.694 35.934 149.446 34.5796 148.949 33.5031C148.452 32.4196 147.717 31.6104 146.744 31.0756C145.778 30.5338 144.578 30.263 143.142 30.263H139.872V44.9112Z" fill="black"/>
<path d="M157.569 48.2555H153.47L160.933 26.9187H165.673L173.146 48.2555H169.047L163.386 31.2944H163.22L157.569 48.2555ZM157.704 39.8895H168.882V42.9942H157.704V39.8895Z" fill="black"/>
<path d="M192.716 37.5871C192.716 39.886 192.289 41.8551 191.433 43.4943C190.584 45.1265 189.425 46.3767 187.955 47.2449C186.493 48.1131 184.833 48.5472 182.977 48.5472C181.121 48.5472 179.458 48.1131 177.988 47.2449C176.525 46.3697 175.366 45.1161 174.511 43.4838C173.662 41.8447 173.238 39.8791 173.238 37.5871C173.238 35.2881 173.662 33.3225 174.511 31.6903C175.366 30.0511 176.525 28.7974 177.988 27.9292C179.458 27.0611 181.121 26.627 182.977 26.627C184.833 26.627 186.493 27.0611 187.955 27.9292C189.425 28.7974 190.584 30.0511 191.433 31.6903C192.289 33.3225 192.716 35.2881 192.716 37.5871ZM188.856 37.5871C188.856 35.9687 188.604 34.6039 188.1 33.4926C187.603 32.3744 186.913 31.5305 186.03 30.961C185.147 30.3845 184.129 30.0963 182.977 30.0963C181.825 30.0963 180.807 30.3845 179.924 30.961C179.041 31.5305 178.347 32.3744 177.843 33.4926C177.347 34.6039 177.098 35.9687 177.098 37.5871C177.098 39.2054 177.347 40.5737 177.843 41.6919C178.347 42.8032 179.041 43.6471 179.924 44.2236C180.807 44.7931 181.825 45.0779 182.977 45.0779C184.129 45.0779 185.147 44.7931 186.03 44.2236C186.913 43.6471 187.603 42.8032 188.1 41.6919C188.604 40.5737 188.856 39.2054 188.856 37.5871Z" fill="black"/>
<defs>
<linearGradient id="paint0_linear_1233_2156" x1="83.1587" y1="36.5371" x2="40.7293" y2="36.5371" gradientUnits="userSpaceOnUse">
<stop stop-color="#00FB8C"/>
<stop offset="0.0971267" stop-color="#64CCEB"/>
<stop offset="0.276683" stop-color="#64CCEB"/>
<stop offset="0.319606" stop-color="#64CCEB"/>
<stop offset="0.697546" stop-color="#0F39D9"/>
<stop offset="0.806149" stop-color="#0F39D9"/>
<stop offset="1" stop-color="#64CCEB"/>
</linearGradient>
<linearGradient id="paint1_linear_1233_2156" x1="82.5508" y1="51.0319" x2="69.2398" y2="43.4474" gradientUnits="userSpaceOnUse">
<stop stop-color="#00FB8C"/>
<stop offset="0.0958371" stop-color="#64CCEB"/>
<stop offset="0.477009" stop-color="#64CCEB"/>
<stop offset="0.646695" stop-color="#64CCEB"/>
<stop offset="1" stop-color="#0F39D9"/>
</linearGradient>
<clipPath id="clip0_1233_2156">
<rect x="3.58203" width="236.418" height="73.0746" fill="white"/>
</clipPath>
</defs>
</svg>
