<svg width="241" height="78" viewBox="0 0 241 78" fill="none" xmlns="http://www.w3.org/2000/svg">
<mask id="path-1-inside-1_323_124" fill="white">
<path d="M234.985 21.8955V77.6553H0V5.29688H218.387L234.985 21.8955Z"/>
</mask>
<path d="M234.985 21.8955V77.6553H0V5.29688H218.387L234.985 21.8955Z" fill="#02BC59"/>
<path d="M234.985 21.8955H236.985V21.0671L236.4 20.4813L234.985 21.8955ZM234.985 77.6553V79.6553H236.985V77.6553H234.985ZM0 77.6553H-2V79.6553H0V77.6553ZM0 5.29688V3.29688H-2V5.29688H0ZM218.387 5.29688L219.801 3.88266L219.215 3.29688H218.387V5.29688ZM234.985 21.8955H232.985V77.6553H234.985H236.985V21.8955H234.985ZM234.985 77.6553V75.6553H0V77.6553V79.6553H234.985V77.6553ZM0 77.6553H2V5.29688H0H-2V77.6553H0ZM0 5.29688V7.29688H218.387V5.29688V3.29688H0V5.29688ZM218.387 5.29688L216.973 6.71109L233.571 23.3097L234.985 21.8955L236.4 20.4813L219.801 3.88266L218.387 5.29688Z" fill="black" mask="url(#path-1-inside-1_323_124)"/>
<mask id="path-3-inside-2_323_124" fill="white">
<path d="M241 25.9121V73.0742H4.58203V0H215.088L241 25.9121Z"/>
</mask>
<path d="M241 25.9121V73.0742H4.58203V0H215.088L241 25.9121Z" fill="#FDF1E5"/>
<path d="M241 25.9121H243V25.0837L242.414 24.4979L241 25.9121ZM241 73.0742V75.0742H243V73.0742H241ZM4.58203 73.0742H2.58203V75.0742H4.58203V73.0742ZM4.58203 0V-2H2.58203V0H4.58203ZM215.088 0L216.502 -1.41421L215.916 -2H215.088V0ZM241 25.9121H239V73.0742H241H243V25.9121H241ZM241 73.0742V71.0742H4.58203V73.0742V75.0742H241V73.0742ZM4.58203 73.0742H6.58203V0H4.58203H2.58203V73.0742H4.58203ZM4.58203 0V2H215.088V0V-2H4.58203V0ZM215.088 0L213.674 1.41421L239.586 27.3263L241 25.9121L242.414 24.4979L216.502 -1.41421L215.088 0Z" fill="black" mask="url(#path-3-inside-2_323_124)"/>
<path d="M215 26.5683V2L239.569 26.5683H215Z" fill="#02BC59" stroke="black" stroke-width="2" stroke-linejoin="bevel"/>
<path d="M49.3838 17.6882C47.4349 18.1134 45.6917 19.3418 44.579 20.9708C43.4533 22.5927 42.8487 24.4871 42.5277 26.3935C42.2119 28.3069 42.2376 30.2456 42.3341 32.1527C42.5393 35.9985 43.3311 39.7936 44.6812 43.4049C45.3637 45.2106 46.1742 46.9599 47.139 48.6382C48.1167 50.3115 49.2616 51.8821 50.5223 53.3526C51.8023 54.7966 53.1724 56.2411 55.012 57.1344C55.4751 57.3625 55.9833 57.5019 56.5107 57.5786C57.0639 57.6356 57.5978 57.5469 58.0866 57.4005C59.0707 57.1034 59.9391 56.5965 60.756 56.0447C61.8881 55.2724 62.9301 54.379 63.9078 53.4477C64.3259 53.0352 64.744 52.6234 65.1492 52.2059C65.2199 52.1362 65.2843 52.0595 65.3615 51.9841C66.6222 50.66 67.7993 49.2528 68.9313 47.8273C71.3177 44.7924 73.5111 41.6309 75.4922 38.3363C77.4669 35.0424 79.3451 31.6781 80.7538 28.0788C81.4742 26.2985 81.8665 24.233 81.3777 22.2696C81.1397 21.2932 80.6573 20.3372 79.8468 19.646C79.0428 18.956 77.93 18.6576 76.8944 18.721C75.846 18.778 74.9069 19.1461 74.0064 19.5326C73.0994 19.9444 72.2311 20.4379 71.4463 21.0278C69.8576 22.1866 68.5068 23.6444 67.3805 25.2151C65.1235 28.3893 63.5926 31.9626 62.3956 35.5993C61.2384 39.2297 60.1128 42.9747 60.2536 46.8832C60.2993 47.8526 60.4151 48.8156 60.7174 49.7603C60.8203 50.0764 60.9554 50.3939 61.1098 50.691C60.2536 51.5216 59.3795 52.2882 58.5304 52.8832C57.9194 53.3019 56.8066 53.8145 56.8066 53.8145C56.8066 53.8145 56.6908 53.7898 56.6201 53.7455C56.2277 53.6124 55.6231 53.2 55.0442 52.7127C54.4646 52.2306 53.8735 51.6477 53.3017 51.0141C52.7344 50.3939 52.1304 49.6836 51.6415 49.019C51.1205 48.3594 50.651 47.6378 50.1879 46.9156C49.2938 45.4387 48.4769 43.8871 47.7886 42.2645C46.4128 39.0276 45.5309 35.5429 45.1836 31.9943C45.0614 31.1142 45.0234 30.2019 44.9713 29.3333C44.9392 28.478 44.9655 27.6233 45.0421 26.787C45.2157 25.1207 45.6403 23.5107 46.4186 22.2126C47.1904 20.9137 48.3167 19.9317 49.8212 19.4622C51.3199 18.9687 52.8765 19.1011 54.3945 19.836C55.9003 20.5716 57.2498 21.8578 58.3954 23.296C59.5596 24.7399 60.5823 26.3688 61.3864 28.0788L61.3934 28.1042C61.4378 28.1935 61.5536 28.2442 61.6501 28.2125C61.7594 28.1675 61.8109 28.0535 61.7723 27.9527C61.1355 26.1274 60.2736 24.392 59.2187 22.7695C58.1445 21.1729 56.8388 19.6593 55.1471 18.6265C54.3045 18.107 53.3531 17.7326 52.3684 17.5742C51.9824 17.5077 51.5927 17.4766 51.2029 17.4766C50.5918 17.4766 49.9807 17.5526 49.3838 17.6882ZM62.6728 47.9926C62.64 47.5998 62.6278 47.1943 62.64 46.7819C62.6728 45.1289 63.0008 43.4049 63.4704 41.6943C63.7084 40.8263 63.9785 39.9836 64.2937 39.1093C64.5954 38.2419 64.8662 37.3606 65.2135 36.5116L65.6953 35.2318L66.2362 33.9837C66.5707 33.1411 67.0017 32.3554 67.3805 31.5508C68.2174 29.9859 69.1307 28.4913 70.1599 27.1798C71.0482 26.0476 72.049 24.9908 73.2081 24.1234C74.1048 23.4518 75.864 21.9794 77.0829 22.561C77.9313 22.9659 77.8843 23.9612 77.6907 24.7316C77.6283 24.9787 77.557 25.2144 77.4991 25.421C76.8951 27.5707 75.855 29.5607 74.7911 31.5197C73.9221 33.122 72.9959 34.713 72.0188 36.2842C70.057 39.4071 67.9794 42.4862 65.7474 45.3943C64.8019 46.6178 63.8306 47.8089 62.8079 48.9233C62.75 48.6509 62.6985 48.3284 62.6728 47.9926Z" fill="url(#paint0_linear_323_124)"/>
<path d="M87.4223 42.6417L87.4144 42.6582C86.2949 44.2466 84.8186 45.5321 83.2673 46.6836C81.7075 47.8179 80.0572 48.8441 78.3653 49.7593C76.6649 50.6673 74.9071 51.4988 73.1559 52.1039C72.941 52.1805 72.7254 52.2471 72.5262 52.3058C72.3106 52.3659 72.1361 52.3989 71.8957 52.449C71.4477 52.55 70.9996 52.6173 70.5522 52.6761C69.6567 52.7935 68.7775 52.8107 67.9224 52.744C67.0354 52.6681 66.1888 52.4576 65.4672 52.1125C65.393 52.197 65.3266 52.2722 65.2523 52.3481C64.8453 52.7856 64.4226 53.2145 64 53.6428C65.1937 54.2644 66.5542 54.5501 67.873 54.5845C68.8681 54.6095 69.8723 54.5165 70.842 54.3311C71.813 54.1469 72.7997 53.9199 73.7199 53.5247C75.5532 52.7605 77.2868 51.8103 78.971 50.7762C80.6544 49.7349 82.2715 48.5999 83.7896 47.3138C85.2998 46.0283 86.7254 44.5996 87.7713 42.8681C87.8286 42.7757 87.8039 42.6582 87.7127 42.5903C87.6782 42.5652 87.6372 42.5527 87.5961 42.5527C87.5304 42.5527 87.4639 42.5843 87.4223 42.6417Z" fill="url(#paint1_linear_323_124)"/>
<path d="M101.732 49.2548V27.918H105.572V46.0146H114.908V49.2548H101.732Z" fill="black"/>
<path d="M120.284 27.918L124.952 35.7317H125.118L129.806 27.918H134.184L127.653 38.5864L134.288 49.2548H129.837L125.118 41.4931H124.952L120.232 49.2548H115.803L122.499 38.5864L115.885 27.918H120.284Z" fill="black"/>
<path d="M143.214 49.2548H136.031V27.918H143.359C145.463 27.918 147.271 28.3451 148.782 29.1994C150.3 30.0468 151.466 31.2657 152.281 32.8563C153.095 34.4468 153.502 36.3499 153.502 38.5655C153.502 40.7881 153.091 42.6981 152.27 44.2956C151.456 45.8931 150.28 47.119 148.741 47.9733C147.209 48.8276 145.367 49.2548 143.214 49.2548ZM139.871 45.9105H143.028C144.504 45.9105 145.736 45.6396 146.723 45.0978C147.709 44.5491 148.451 43.733 148.948 42.6495C149.445 41.5591 149.693 40.1977 149.693 38.5655C149.693 36.9333 149.445 35.5789 148.948 34.5024C148.451 33.4189 147.716 32.6097 146.743 32.0749C145.777 31.5331 144.577 31.2623 143.141 31.2623H139.871V45.9105Z" fill="black"/>
<path d="M157.57 49.2548H153.471L160.934 27.918H165.674L173.147 49.2548H169.048L163.387 32.2937H163.221L157.57 49.2548ZM157.705 40.8888H168.883V43.9935H157.705V40.8888Z" fill="black"/>
<path d="M192.716 38.5871C192.716 40.886 192.289 42.8551 191.433 44.4943C190.584 46.1265 189.425 47.3767 187.955 48.2449C186.493 49.1131 184.833 49.5472 182.977 49.5472C181.121 49.5472 179.458 49.1131 177.988 48.2449C176.525 47.3697 175.366 46.1161 174.511 44.4838C173.662 42.8447 173.238 40.8791 173.238 38.5871C173.238 36.2881 173.662 34.3225 174.511 32.6903C175.366 31.0511 176.525 29.7974 177.988 28.9292C179.458 28.0611 181.121 27.627 182.977 27.627C184.833 27.627 186.493 28.0611 187.955 28.9292C189.425 29.7974 190.584 31.0511 191.433 32.6903C192.289 34.3225 192.716 36.2881 192.716 38.5871ZM188.856 38.5871C188.856 36.9687 188.604 35.6039 188.1 34.4926C187.603 33.3744 186.913 32.5305 186.03 31.961C185.147 31.3845 184.129 31.0963 182.977 31.0963C181.825 31.0963 180.807 31.3845 179.924 31.961C179.041 32.5305 178.347 33.3744 177.843 34.4926C177.347 35.6039 177.098 36.9687 177.098 38.5871C177.098 40.2054 177.347 41.5737 177.843 42.6919C178.347 43.8032 179.041 44.6471 179.924 45.2236C180.807 45.7931 181.825 46.0779 182.977 46.0779C184.129 46.0779 185.147 45.7931 186.03 45.2236C186.913 44.6471 187.603 43.8032 188.1 42.6919C188.604 41.5737 188.856 40.2054 188.856 38.5871Z" fill="black"/>
<defs>
<linearGradient id="paint0_linear_323_124" x1="83.1596" y1="37.5362" x2="40.7302" y2="37.5362" gradientUnits="userSpaceOnUse">
<stop stop-color="#00FB8C"/>
<stop offset="0.0971267" stop-color="#64CCEB"/>
<stop offset="0.276683" stop-color="#64CCEB"/>
<stop offset="0.319606" stop-color="#64CCEB"/>
<stop offset="0.697546" stop-color="#0F39D9"/>
<stop offset="0.806149" stop-color="#0F39D9"/>
<stop offset="1" stop-color="#64CCEB"/>
</linearGradient>
<linearGradient id="paint1_linear_323_124" x1="82.5499" y1="52.032" x2="69.2389" y2="44.4475" gradientUnits="userSpaceOnUse">
<stop stop-color="#00FB8C"/>
<stop offset="0.0958371" stop-color="#64CCEB"/>
<stop offset="0.477009" stop-color="#64CCEB"/>
<stop offset="0.646695" stop-color="#64CCEB"/>
<stop offset="1" stop-color="#0F39D9"/>
</linearGradient>
</defs>
</svg>
