<svg width="387" height="153" viewBox="0 0 387 153" fill="none" xmlns="http://www.w3.org/2000/svg">
<path d="M2 113.5V16.5H309L341 31.2844V113.5H2Z" fill="#02BC59" stroke="black" stroke-width="2"/>
<path d="M18 1L2.5 16.5H97L81.5 1H18Z" fill="#02BC59" stroke="black" stroke-width="2"/>
<path d="M68.012 62.2C68.012 64.6 67.612 66.84 66.812 68.92C66.012 71 64.876 72.84 63.404 74.44C61.964 76.008 60.236 77.24 58.22 78.136C56.236 79.032 54.06 79.48 51.692 79.48C49.324 79.48 47.148 79.032 45.164 78.136C43.18 77.24 41.452 76.008 39.98 74.44C38.54 72.84 37.42 71 36.62 68.92C35.82 66.84 35.42 64.6 35.42 62.2C35.42 59.8 35.82 57.56 36.62 55.48C37.42 53.4 38.54 51.576 39.98 50.008C41.452 48.408 43.18 47.16 45.164 46.264C47.148 45.368 49.324 44.92 51.692 44.92C54.06 44.92 56.236 45.368 58.22 46.264C60.236 47.16 61.964 48.408 63.404 50.008C64.876 51.576 66.012 53.4 66.812 55.48C67.612 57.56 68.012 59.8 68.012 62.2ZM61.772 62.2C61.772 60.056 61.34 58.12 60.476 56.392C59.612 54.632 58.428 53.24 56.924 52.216C55.42 51.192 53.676 50.68 51.692 50.68C49.708 50.68 47.964 51.192 46.46 52.216C44.956 53.24 43.772 54.616 42.908 56.344C42.076 58.072 41.66 60.024 41.66 62.2C41.66 64.344 42.076 66.296 42.908 68.056C43.772 69.784 44.956 71.16 46.46 72.184C47.964 73.208 49.708 73.72 51.692 73.72C53.676 73.72 55.42 73.208 56.924 72.184C58.428 71.16 59.612 69.784 60.476 68.056C61.34 66.296 61.772 64.344 61.772 62.2ZM92.0979 53.32C92.9299 53.32 93.6179 53.608 94.1619 54.184C94.7059 54.728 94.9779 55.416 94.9779 56.248V68.44C94.9779 71.832 94.0339 74.52 92.1459 76.504C90.2579 78.488 87.5379 79.48 83.9859 79.48C80.4339 79.48 77.7139 78.488 75.8259 76.504C73.9699 74.52 73.0419 71.832 73.0419 68.44V56.248C73.0419 55.416 73.3139 54.728 73.8579 54.184C74.4019 53.608 75.0899 53.32 75.9219 53.32C76.7539 53.32 77.4419 53.608 77.9859 54.184C78.5299 54.728 78.8019 55.416 78.8019 56.248V68.44C78.8019 70.392 79.2339 71.848 80.0979 72.808C80.9619 73.736 82.2579 74.2 83.9859 74.2C85.7459 74.2 87.0579 73.736 87.9219 72.808C88.7859 71.848 89.2179 70.392 89.2179 68.44V56.248C89.2179 55.416 89.4899 54.728 90.0339 54.184C90.5779 53.608 91.2659 53.32 92.0979 53.32ZM104.094 79C103.262 79 102.574 78.728 102.03 78.184C101.486 77.608 101.214 76.904 101.214 76.072V56.248C101.214 55.416 101.486 54.728 102.03 54.184C102.574 53.608 103.262 53.32 104.094 53.32C104.926 53.32 105.614 53.608 106.158 54.184C106.702 54.728 106.974 55.416 106.974 56.248V60.76L106.638 57.544C106.99 56.776 107.438 56.104 107.982 55.528C108.558 54.92 109.198 54.424 109.902 54.04C110.606 53.624 111.358 53.32 112.158 53.128C112.958 52.936 113.758 52.84 114.558 52.84C115.518 52.84 116.318 53.112 116.958 53.656C117.63 54.2 117.966 54.84 117.966 55.576C117.966 56.632 117.694 57.4 117.15 57.88C116.606 58.328 116.014 58.552 115.374 58.552C114.766 58.552 114.206 58.44 113.694 58.216C113.214 57.992 112.654 57.88 112.014 57.88C111.438 57.88 110.846 58.024 110.238 58.312C109.662 58.568 109.118 58.984 108.606 59.56C108.126 60.136 107.726 60.856 107.406 61.72C107.118 62.552 106.974 63.544 106.974 64.696V76.072C106.974 76.904 106.702 77.608 106.158 78.184C105.614 78.728 104.926 79 104.094 79ZM149.831 45.4C151.495 45.4 153.047 45.88 154.487 46.84C155.959 47.8 157.143 49.096 158.039 50.728C158.935 52.36 159.383 54.184 159.383 56.2C159.383 58.184 158.935 59.992 158.039 61.624C157.143 63.256 155.959 64.568 154.487 65.56C153.047 66.52 151.495 67 149.831 67H140.999L141.479 66.136V76.072C141.479 76.904 141.223 77.608 140.711 78.184C140.199 78.728 139.527 79 138.695 79C137.895 79 137.239 78.728 136.727 78.184C136.215 77.608 135.959 76.904 135.959 76.072V48.328C135.959 47.496 136.231 46.808 136.775 46.264C137.351 45.688 138.055 45.4 138.887 45.4H149.831ZM149.831 61.528C150.439 61.528 151.031 61.272 151.607 60.76C152.183 60.248 152.663 59.592 153.047 58.792C153.431 57.96 153.623 57.096 153.623 56.2C153.623 55.272 153.431 54.408 153.047 53.608C152.663 52.808 152.183 52.168 151.607 51.688C151.031 51.176 150.439 50.92 149.831 50.92H140.903L141.479 50.056V62.296L140.951 61.528H149.831ZM185.191 52.84C186.023 52.84 186.711 53.112 187.255 53.656C187.799 54.2 188.071 54.904 188.071 55.768V76.072C188.071 76.904 187.799 77.608 187.255 78.184C186.711 78.728 186.023 79 185.191 79C184.359 79 183.671 78.728 183.127 78.184C182.583 77.608 182.311 76.904 182.311 76.072V73.72L183.367 74.152C183.367 74.568 183.143 75.08 182.695 75.688C182.247 76.264 181.639 76.84 180.871 77.416C180.103 77.992 179.191 78.488 178.135 78.904C177.111 79.288 175.991 79.48 174.775 79.48C172.567 79.48 170.567 78.92 168.775 77.8C166.983 76.648 165.559 75.08 164.503 73.096C163.479 71.08 162.967 68.776 162.967 66.184C162.967 63.56 163.479 61.256 164.503 59.272C165.559 57.256 166.967 55.688 168.727 54.568C170.487 53.416 172.439 52.84 174.583 52.84C175.959 52.84 177.223 53.048 178.375 53.464C179.527 53.88 180.519 54.408 181.351 55.048C182.215 55.688 182.871 56.344 183.319 57.016C183.799 57.656 184.039 58.2 184.039 58.648L182.311 59.272V55.768C182.311 54.936 182.583 54.248 183.127 53.704C183.671 53.128 184.359 52.84 185.191 52.84ZM175.495 74.2C176.903 74.2 178.135 73.848 179.191 73.144C180.247 72.44 181.063 71.48 181.639 70.264C182.247 69.048 182.551 67.688 182.551 66.184C182.551 64.648 182.247 63.272 181.639 62.056C181.063 60.84 180.247 59.88 179.191 59.176C178.135 58.472 176.903 58.12 175.495 58.12C174.119 58.12 172.903 58.472 171.847 59.176C170.791 59.88 169.959 60.84 169.351 62.056C168.775 63.272 168.487 64.648 168.487 66.184C168.487 67.688 168.775 69.048 169.351 70.264C169.959 71.48 170.791 72.44 171.847 73.144C172.903 73.848 174.119 74.2 175.495 74.2ZM197.188 79C196.356 79 195.668 78.728 195.124 78.184C194.58 77.608 194.308 76.904 194.308 76.072V56.248C194.308 55.416 194.58 54.728 195.124 54.184C195.668 53.608 196.356 53.32 197.188 53.32C198.02 53.32 198.708 53.608 199.252 54.184C199.796 54.728 200.068 55.416 200.068 56.248V60.76L199.732 57.544C200.084 56.776 200.532 56.104 201.076 55.528C201.652 54.92 202.292 54.424 202.996 54.04C203.7 53.624 204.452 53.32 205.252 53.128C206.052 52.936 206.852 52.84 207.652 52.84C208.612 52.84 209.412 53.112 210.052 53.656C210.724 54.2 211.06 54.84 211.06 55.576C211.06 56.632 210.788 57.4 210.244 57.88C209.7 58.328 209.108 58.552 208.468 58.552C207.86 58.552 207.3 58.44 206.788 58.216C206.308 57.992 205.748 57.88 205.108 57.88C204.532 57.88 203.94 58.024 203.332 58.312C202.756 58.568 202.212 58.984 201.7 59.56C201.22 60.136 200.82 60.856 200.5 61.72C200.212 62.552 200.068 63.544 200.068 64.696V76.072C200.068 76.904 199.796 77.608 199.252 78.184C198.708 78.728 198.02 79 197.188 79ZM215.408 53.8H226.784C227.552 53.8 228.192 54.056 228.704 54.568C229.216 55.08 229.472 55.72 229.472 56.488C229.472 57.224 229.216 57.848 228.704 58.36C228.192 58.84 227.552 59.08 226.784 59.08H215.408C214.64 59.08 214 58.824 213.488 58.312C212.976 57.8 212.72 57.16 212.72 56.392C212.72 55.656 212.976 55.048 213.488 54.568C214 54.056 214.64 53.8 215.408 53.8ZM220.544 47.8C221.376 47.8 222.048 48.088 222.56 48.664C223.104 49.208 223.376 49.896 223.376 50.728V72.088C223.376 72.536 223.456 72.904 223.616 73.192C223.808 73.48 224.048 73.688 224.336 73.816C224.656 73.944 224.992 74.008 225.344 74.008C225.728 74.008 226.08 73.944 226.4 73.816C226.72 73.656 227.088 73.576 227.504 73.576C227.952 73.576 228.352 73.784 228.704 74.2C229.088 74.616 229.28 75.192 229.28 75.928C229.28 76.824 228.784 77.56 227.792 78.136C226.832 78.712 225.792 79 224.672 79C224 79 223.248 78.952 222.416 78.856C221.616 78.728 220.848 78.456 220.112 78.04C219.408 77.592 218.816 76.92 218.336 76.024C217.856 75.128 217.616 73.896 217.616 72.328V50.728C217.616 49.896 217.888 49.208 218.432 48.664C219.008 48.088 219.712 47.8 220.544 47.8ZM248.489 52.84C250.857 52.84 252.649 53.336 253.865 54.328C255.113 55.32 255.961 56.648 256.409 58.312C256.889 59.944 257.129 61.768 257.129 63.784V76.072C257.129 76.904 256.857 77.608 256.313 78.184C255.769 78.728 255.081 79 254.249 79C253.417 79 252.729 78.728 252.185 78.184C251.641 77.608 251.369 76.904 251.369 76.072V63.784C251.369 62.728 251.225 61.784 250.937 60.952C250.681 60.088 250.201 59.4 249.497 58.888C248.793 58.376 247.785 58.12 246.473 58.12C245.193 58.12 244.105 58.376 243.209 58.888C242.345 59.4 241.673 60.088 241.193 60.952C240.745 61.784 240.521 62.728 240.521 63.784V76.072C240.521 76.904 240.249 77.608 239.705 78.184C239.161 78.728 238.473 79 237.641 79C236.809 79 236.121 78.728 235.577 78.184C235.033 77.608 234.761 76.904 234.761 76.072V56.248C234.761 55.416 235.033 54.728 235.577 54.184C236.121 53.608 236.809 53.32 237.641 53.32C238.473 53.32 239.161 53.608 239.705 54.184C240.249 54.728 240.521 55.416 240.521 56.248V58.312L239.801 58.168C240.089 57.624 240.505 57.048 241.049 56.44C241.593 55.8 242.233 55.208 242.969 54.664C243.705 54.12 244.537 53.688 245.465 53.368C246.393 53.016 247.401 52.84 248.489 52.84ZM275.45 79.48C272.73 79.48 270.362 78.92 268.346 77.8C266.362 76.648 264.826 75.096 263.738 73.144C262.682 71.192 262.154 68.984 262.154 66.52C262.154 63.64 262.73 61.192 263.882 59.176C265.066 57.128 266.602 55.56 268.49 54.472C270.378 53.384 272.378 52.84 274.49 52.84C276.122 52.84 277.658 53.176 279.098 53.848C280.57 54.52 281.866 55.448 282.986 56.632C284.106 57.784 284.986 59.128 285.626 60.664C286.298 62.2 286.634 63.832 286.634 65.56C286.602 66.328 286.298 66.952 285.722 67.432C285.146 67.912 284.474 68.152 283.706 68.152H265.37L263.93 63.352H281.546L280.49 64.312V63.016C280.426 62.088 280.09 61.256 279.482 60.52C278.906 59.784 278.17 59.208 277.274 58.792C276.41 58.344 275.482 58.12 274.49 58.12C273.53 58.12 272.634 58.248 271.802 58.504C270.97 58.76 270.25 59.192 269.642 59.8C269.034 60.408 268.554 61.224 268.202 62.248C267.85 63.272 267.674 64.568 267.674 66.136C267.674 67.864 268.026 69.336 268.73 70.552C269.466 71.736 270.394 72.648 271.514 73.288C272.666 73.896 273.882 74.2 275.162 74.2C276.346 74.2 277.29 74.104 277.994 73.912C278.698 73.72 279.258 73.496 279.674 73.24C280.122 72.952 280.522 72.712 280.874 72.52C281.45 72.232 281.994 72.088 282.506 72.088C283.21 72.088 283.786 72.328 284.234 72.808C284.714 73.288 284.954 73.848 284.954 74.488C284.954 75.352 284.506 76.136 283.61 76.84C282.778 77.544 281.61 78.168 280.106 78.712C278.602 79.224 277.05 79.48 275.45 79.48ZM294.547 79C293.715 79 293.027 78.728 292.483 78.184C291.939 77.608 291.667 76.904 291.667 76.072V56.248C291.667 55.416 291.939 54.728 292.483 54.184C293.027 53.608 293.715 53.32 294.547 53.32C295.379 53.32 296.067 53.608 296.611 54.184C297.155 54.728 297.427 55.416 297.427 56.248V60.76L297.091 57.544C297.443 56.776 297.891 56.104 298.435 55.528C299.011 54.92 299.651 54.424 300.355 54.04C301.059 53.624 301.811 53.32 302.611 53.128C303.411 52.936 304.211 52.84 305.011 52.84C305.971 52.84 306.771 53.112 307.411 53.656C308.083 54.2 308.419 54.84 308.419 55.576C308.419 56.632 308.147 57.4 307.603 57.88C307.059 58.328 306.467 58.552 305.827 58.552C305.219 58.552 304.659 58.44 304.147 58.216C303.667 57.992 303.107 57.88 302.467 57.88C301.891 57.88 301.299 58.024 300.691 58.312C300.115 58.568 299.571 58.984 299.059 59.56C298.579 60.136 298.179 60.856 297.859 61.72C297.571 62.552 297.427 63.544 297.427 64.696V76.072C297.427 76.904 297.155 77.608 296.611 78.184C296.067 78.728 295.379 79 294.547 79Z" fill="white"/>
<mask id="path-4-outside-1_1233_2137" maskUnits="userSpaceOnUse" x="302.5" y="75" width="78" height="69" fill="black">
<rect fill="white" x="302.5" y="75" width="78" height="69"/>
<path d="M341.512 141.999L309.412 109.899C306.851 107.339 305.144 104.362 304.291 100.969C303.458 97.5757 303.469 94.2033 304.322 90.8518C305.176 87.4794 306.872 84.5442 309.412 82.0462C312.014 79.4857 314.98 77.7891 318.311 76.9564C321.663 76.1029 325.004 76.1029 328.335 76.9564C331.686 77.8099 334.663 79.5065 337.265 82.0462L341.512 86.1679L345.758 82.0462C348.381 79.5065 351.358 77.8099 354.689 76.9564C358.02 76.1029 361.35 76.1029 364.681 76.9564C368.033 77.7891 371.009 79.4857 373.612 82.0462C376.151 84.5442 377.848 87.4794 378.701 90.8518C379.555 94.2033 379.555 97.5757 378.701 100.969C377.869 104.362 376.172 107.339 373.612 109.899L341.512 141.999Z"/>
</mask>
<path d="M341.512 141.999L309.412 109.899C306.851 107.339 305.144 104.362 304.291 100.969C303.458 97.5757 303.469 94.2033 304.322 90.8518C305.176 87.4794 306.872 84.5442 309.412 82.0462C312.014 79.4857 314.98 77.7891 318.311 76.9564C321.663 76.1029 325.004 76.1029 328.335 76.9564C331.686 77.8099 334.663 79.5065 337.265 82.0462L341.512 86.1679L345.758 82.0462C348.381 79.5065 351.358 77.8099 354.689 76.9564C358.02 76.1029 361.35 76.1029 364.681 76.9564C368.033 77.7891 371.009 79.4857 373.612 82.0462C376.151 84.5442 377.848 87.4794 378.701 90.8518C379.555 94.2033 379.555 97.5757 378.701 100.969C377.869 104.362 376.172 107.339 373.612 109.899L341.512 141.999Z" fill="#FF6B6B"/>
<path d="M341.512 141.999L340.805 142.706L341.512 143.413L342.219 142.706L341.512 141.999ZM309.412 109.899L310.119 109.192L309.412 109.899ZM304.291 100.969L303.32 101.207L303.321 101.213L304.291 100.969ZM304.322 90.8518L305.291 91.0986L305.292 91.0971L304.322 90.8518ZM309.412 82.0462L310.113 82.7591L310.113 82.759L309.412 82.0462ZM318.311 76.9564L318.554 77.9266L318.558 77.9255L318.311 76.9564ZM328.335 76.9564L328.086 77.9251L328.088 77.9255L328.335 76.9564ZM337.265 82.0462L336.567 82.7618L336.569 82.7638L337.265 82.0462ZM341.512 86.1679L340.815 86.8855L341.512 87.5615L342.208 86.8855L341.512 86.1679ZM345.758 82.0462L345.063 81.3278L345.062 81.3286L345.758 82.0462ZM354.689 76.9564L354.937 77.9251L354.689 76.9564ZM364.681 76.9564L364.433 77.9251L364.44 77.9269L364.681 76.9564ZM373.612 82.0462L372.91 82.759L372.91 82.7591L373.612 82.0462ZM378.701 90.8518L377.732 91.0971L377.732 91.0986L378.701 90.8518ZM378.701 100.969L377.732 100.725L377.73 100.731L378.701 100.969ZM373.612 109.899L374.319 110.606L373.612 109.899ZM341.512 141.999L342.219 141.292L310.119 109.192L309.412 109.899L308.705 110.606L340.805 142.706L341.512 141.999ZM309.412 109.899L310.119 109.192C307.682 106.755 306.068 103.936 305.261 100.725L304.291 100.969L303.321 101.213C304.22 104.788 306.021 107.923 308.705 110.606L309.412 109.899ZM304.291 100.969L305.262 100.731C304.468 97.4951 304.479 94.2893 305.291 91.0986L304.322 90.8518L303.353 90.605C302.459 94.1173 302.448 97.6563 303.32 101.207L304.291 100.969ZM304.322 90.8518L305.292 91.0971C306.099 87.9067 307.701 85.132 310.113 82.7591L309.412 82.0462L308.711 81.3333C306.044 83.9564 304.252 87.0522 303.353 90.6064L304.322 90.8518ZM309.412 82.0462L310.113 82.759C312.596 80.3154 315.407 78.7132 318.554 77.9266L318.311 76.9564L318.069 75.9863C314.554 76.865 311.431 78.6559 308.71 81.3334L309.412 82.0462ZM318.311 76.9564L318.558 77.9255C321.748 77.1131 324.919 77.1135 328.086 77.9251L328.335 76.9564L328.583 75.9877C325.089 75.0924 321.577 75.0927 318.064 75.9873L318.311 76.9564ZM328.335 76.9564L328.088 77.9255C331.26 78.7334 334.083 80.3383 336.567 82.7618L337.265 82.0462L337.964 81.3305C335.242 78.6747 332.112 76.8864 328.581 75.9873L328.335 76.9564ZM337.265 82.0462L336.569 82.7638L340.815 86.8855L341.512 86.1679L342.208 85.4504L337.962 81.3286L337.265 82.0462ZM341.512 86.1679L342.208 86.8855L346.455 82.7638L345.758 82.0462L345.062 81.3286L340.815 85.4504L341.512 86.1679ZM345.758 82.0462L346.454 82.7646C348.96 80.3381 351.785 78.7328 354.937 77.9251L354.689 76.9564L354.441 75.9877C350.931 76.887 347.803 78.6749 345.063 81.3278L345.758 82.0462ZM354.689 76.9564L354.937 77.9251C358.105 77.1133 361.265 77.1133 364.433 77.9251L364.681 76.9564L364.929 75.9877C361.436 75.0925 357.934 75.0925 354.441 75.9877L354.689 76.9564ZM364.681 76.9564L364.44 77.9269C367.608 78.7139 370.428 80.3166 372.91 82.759L373.612 82.0462L374.313 81.3334C371.591 78.6548 368.457 76.8643 364.922 75.9859L364.681 76.9564ZM373.612 82.0462L372.91 82.7591C375.323 85.132 376.924 87.9067 377.732 91.0971L378.701 90.8518L379.671 90.6064C378.771 87.0522 376.98 83.9564 374.313 81.3333L373.612 82.0462ZM378.701 90.8518L377.732 91.0986C378.544 94.2872 378.545 97.4909 377.732 100.725L378.701 100.969L379.671 101.213C380.565 97.6605 380.565 94.1195 379.67 90.605L378.701 90.8518ZM378.701 100.969L377.73 100.731C376.943 103.94 375.341 106.756 372.904 109.192L373.612 109.899L374.319 110.606C377.003 107.922 378.795 104.784 379.673 101.207L378.701 100.969ZM373.612 109.899L372.904 109.192L340.805 141.292L341.512 141.999L342.219 142.706L374.319 110.606L373.612 109.899Z" fill="black" mask="url(#path-4-outside-1_1233_2137)"/>
</svg>
