<?xml version="1.0" standalone="no"?><!DOCTYPE svg PUBLIC "-//W3C//DTD SVG 1.1//EN" "http://www.w3.org/Graphics/SVG/1.1/DTD/svg11.dtd"><svg t="1750901118967" class="icon" viewBox="0 0 1024 1024" version="1.1" xmlns="http://www.w3.org/2000/svg" p-id="7165" xmlns:xlink="http://www.w3.org/1999/xlink" width="200" height="200"><path d="M512 1024c282.768291 0 512-229.231709 512-512S794.768291 0 512 0 0 229.231709 0 512s229.231709 512 512 512z" fill="#F3BA2F" p-id="7166"></path><path d="M387.709673 460.930327L512 336.64l124.350836 124.350836 72.322328-72.317672L512 192 315.392 388.608l72.317673 72.322327zM192 512l72.322327-72.317673L336.64 512l-72.322327 72.317673L192 512z m195.709673 51.074327L512 687.36l124.350836-124.350836 72.322328 72.285091L512 832l-196.608-196.608-0.093091-0.097745 72.415418-72.219928zM687.36 512l72.322327-72.317673L832 512l-72.317673 72.317673L687.36 512z m-102.018327-0.065164h0.065163V512L512 585.406836l-73.309091-73.281163-0.130327-0.125673 0.125673-0.097745 12.832581-12.86051 6.237091-6.241745L512 438.593164l73.374255 73.374254-0.032582-0.032582z" fill="#FFFFFF" p-id="7167"></path></svg>