<?xml version="1.0" standalone="no"?><!DOCTYPE svg PUBLIC "-//W3C//DTD SVG 1.1//EN" "http://www.w3.org/Graphics/SVG/1.1/DTD/svg11.dtd"><svg t="1750901108478" class="icon" viewBox="0 0 1024 1024" version="1.1" xmlns="http://www.w3.org/2000/svg" p-id="6149" xmlns:xlink="http://www.w3.org/1999/xlink" width="200" height="200"><path d="M512 512m-512 0a512 512 0 1 0 1024 0 512 512 0 1 0-1024 0Z" fill="#2775CA" p-id="6150"></path><path d="M657.339733 140.424533c11.6736 3.584 98.440533 37.4784 160.768 106.222934 62.327467 68.7104 93.559467 147.899733 101.205334 221.866666 7.611733 73.966933-2.218667 164.1472-51.712 243.712-49.493333 79.5648-100.4544 113.152-127.829334 131.037867-27.3408 17.851733-65.877333 33.792-80.2816 38.912-14.4384 5.051733-18.432 7.406933-24.6784 2.901333-6.280533-4.471467-7.7824-7.7824-7.7824-13.994666v-34.577067c0-4.949333 2.56-14.609067 16.418134-19.968 13.892267-5.358933 39.253333-14.779733 72.2944-38.126933 33.0752-23.313067 56.2176-45.4656 87.278933-90.760534 31.061333-45.294933 47.991467-113.732267 50.176-147.114666 2.184533-33.416533 3.345067-86.528-22.528-150.2208-25.9072-63.6928-61.3376-98.167467-88.132267-122.811734-26.794667-24.610133-55.569067-39.355733-71.9872-47.274666-16.384-7.918933-26.965333-11.332267-30.651733-12.970667-3.652267-1.604267-12.868267-10.1376-12.868267-22.1184v-27.648c0-5.0176-1.1264-10.478933 4.881067-17.066667s13.7216-3.584 25.429333 0z m-256.546133 0c11.707733-3.584 19.456-6.587733 25.429333 0 6.007467 6.587733 4.881067 12.049067 4.881067 17.066667v27.648c0 11.9808-9.216 20.514133-12.868267 22.152533-3.652267 1.604267-14.267733 5.0176-30.651733 12.970667-16.384 7.8848-45.192533 22.6304-71.9872 47.240533-26.794667 24.644267-62.225067 59.118933-88.132267 122.811734-25.873067 63.6928-24.712533 116.804267-22.528 150.186666 2.184533 33.450667 19.114667 101.853867 50.176 147.1488 31.061333 45.294933 54.203733 67.447467 87.278934 90.794667 33.041067 23.313067 58.402133 32.733867 72.2944 38.0928 13.858133 5.358933 16.384 15.018667 16.384 19.968v34.577067c0 6.212267-1.467733 9.5232-7.748267 13.994666-6.280533 4.5056-10.24 2.1504-24.6784-2.935466-14.4384-5.051733-52.9408-21.026133-80.2816-38.912-27.374933-17.851733-78.336-51.438933-127.829333-131.003734-49.493333-79.5648-59.323733-169.745067-51.712-243.712 7.645867-73.966933 38.877867-153.156267 101.205333-221.866666 62.327467-68.744533 149.0944-102.638933 160.768-106.222934z m143.018667 108.202667c14.7456 0 18.158933 13.824 18.158933 19.012267l-0.1024 49.732266c4.983467 0.887467 10.24 1.9456 15.9744 3.208534 32.494933 7.0656 53.521067 30.3104 63.214933 42.496 9.728 12.1856 16.9984 31.982933 18.670934 43.8272 1.706667 11.844267-7.509333 17.749333-14.677334 17.749333h-35.5328c-6.212267 0-12.970667-4.437333-14.677333-9.3184-1.706667-4.881067-4.061867-14.711467-11.264-23.415467-7.168-8.669867-16.930133-16.725333-29.9008-19.797333-12.970667-3.072-31.812267-6.485333-55.125333-1.501867-23.313067 4.983467-38.7072 20.411733-40.8576 39.6288-2.116267 19.2512 2.048 29.320533 6.826666 35.84 4.778667 6.485333 12.219733 16.384 41.301334 23.313067 29.047467 6.929067 72.3968 7.816533 109.909333 23.9616 37.546667 16.145067 50.619733 42.530133 55.671467 73.659733a114.619733 114.619733 0 0 1-18.158934 83.2512c-15.633067 23.210667-50.346667 47.445333-88.337066 52.360534l-3.003734 0.341333 0.068267 51.0976c0 5.188267-3.413333 18.978133-18.193067 18.978133h-33.450666c-11.093333 0-16.1792-13.789867-16.1792-18.978133v-51.780267a250.709333 250.709333 0 0 1-22.2208-4.539733c-26.624-6.690133-55.808-24.576-69.393067-44.680533-13.585067-20.138667-19.968-41.710933-21.4016-53.828267-1.467733-12.117333 7.611733-18.090667 13.858133-18.090667h39.253334c3.106133 0 12.629333 2.1504 14.9504 15.325867 2.389333 13.175467 6.587733 23.381333 15.291733 32.1536 8.704 8.772267 23.9616 20.206933 53.998933 21.640533 30.037333 1.399467 44.407467-3.072 59.357867-12.0832 14.916267-9.045333 27.4432-27.648 25.053867-53.418666-2.389333-25.770667-19.319467-36.1472-49.220267-44.544s-55.125333-9.762133-70.4512-13.312c-15.325867-3.618133-52.053333-12.9024-70.894933-33.553067s-24.917333-41.608533-24.917334-73.181867c0-31.607467 15.36-54.954667 30.5152-69.461333a129.160533 129.160533 0 0 1 76.322134-34.542933l-0.1024-48.5376c0-5.188267 5.085867-18.978133 16.145066-18.978134z" fill="#FFFFFF" p-id="6151"></path></svg>